<?xml version="1.0" encoding="UTF-8"?>
<!DOCTYPE svg PUBLIC "-//W3C//DTD SVG 1.1//EN" "http://www.w3.org/Graphics/SVG/1.1/DTD/svg11.dtd">
<svg xmlns="http://www.w3.org/2000/svg" version="1.1" width="500px" height="500px" style="shape-rendering:geometricPrecision; text-rendering:geometricPrecision; image-rendering:optimizeQuality; fill-rule:evenodd; clip-rule:evenodd" xmlns:xlink="http://www.w3.org/1999/xlink">
<g><path style="opacity:0.298" fill="#781f9a" d="M 316.5,2.5 C 308.501,5.04596 300.168,6.04596 291.5,5.5C 292.694,4.22275 294.36,3.55608 296.5,3.5C 302.526,3.01289 308.526,2.34622 314.5,1.5C 315.416,1.54272 316.083,1.87605 316.5,2.5 Z"/></g>
<g><path style="opacity:0.006" fill="#140617" d="M 354.5,3.5 C 357.388,2.98983 359.721,3.65649 361.5,5.5C 358.612,6.01017 356.279,5.34351 354.5,3.5 Z"/></g>
<g><path style="opacity:0.639" fill="#a42bd1" d="M 354.5,3.5 C 356.279,5.34351 358.612,6.01017 361.5,5.5C 373.215,7.24006 384.548,10.2401 395.5,14.5C 395.821,16.0481 396.821,16.7148 398.5,16.5C 410.897,21.7894 422.563,28.2894 433.5,36C 436.426,40.0126 440.093,43.1793 444.5,45.5C 449.516,51.6792 454.683,57.6792 460,63.5C 466.63,73.224 472.464,83.3907 477.5,94C 481.061,104.586 484.727,115.253 488.5,126C 491.067,140.24 492.734,154.574 493.5,169C 492.734,195.28 488.734,221.114 481.5,246.5C 478.987,254.216 476.321,261.882 473.5,269.5C 469.703,276.097 466.203,282.764 463,289.5C 461.163,292.345 458.663,294.345 455.5,295.5C 455.5,289.833 455.5,284.167 455.5,278.5C 456.833,276.833 456.833,275.167 455.5,273.5C 455.5,262.5 455.5,251.5 455.5,240.5C 455.5,240.167 455.5,239.833 455.5,239.5C 457.624,238.969 459.124,237.635 460,235.5C 460.49,234.207 460.657,232.873 460.5,231.5C 461.117,231.389 461.617,231.056 462,230.5C 462.717,226.863 463.217,223.196 463.5,219.5C 463.444,217.36 462.777,215.694 461.5,214.5C 461.851,210.841 460.851,207.841 458.5,205.5C 458.707,194.198 458.374,182.865 457.5,171.5C 456.942,170.21 455.942,169.377 454.5,169C 451.304,168.195 448.304,168.362 445.5,169.5C 441.5,169.5 437.5,169.5 433.5,169.5C 433.34,167.801 433.506,166.134 434,164.5C 435.936,162.963 437.103,160.963 437.5,158.5C 438.86,152.683 439.86,146.683 440.5,140.5C 441.643,137.024 441.81,133.358 441,129.5C 438.134,125.141 435.967,120.475 434.5,115.5C 435.496,115.586 436.329,115.252 437,114.5C 437.813,112.564 438.313,110.564 438.5,108.5C 440.459,102.25 441.126,95.5837 440.5,88.5C 441.089,84.0293 440.423,80.0293 438.5,76.5C 438.617,74.5165 437.95,72.8498 436.5,71.5C 434.437,69.7575 432.437,68.0908 430.5,66.5C 429.833,66.5 429.5,66.1667 429.5,65.5C 424.944,63.5583 419.944,62.8917 414.5,63.5C 412.5,63.5 410.5,63.5 408.5,63.5C 399.007,59.6013 389.007,57.6013 378.5,57.5C 378.489,55.9826 377.823,54.8159 376.5,54C 372.631,52.4106 369.297,50.2439 366.5,47.5C 365.378,46.8442 364.045,46.5108 362.5,46.5C 357.561,47.6519 352.561,48.3186 347.5,48.5C 339.16,48.6664 330.827,48.4997 322.5,48C 318.374,47.0943 314.374,45.9276 310.5,44.5C 307.319,43.1013 304.319,41.4346 301.5,39.5C 301.5,36.1667 301.5,32.8333 301.5,29.5C 296.412,29.1157 291.746,30.1157 287.5,32.5C 283.037,33.2692 278.703,34.6025 274.5,36.5C 272.825,36.8684 271.825,37.8684 271.5,39.5C 269.012,39.6833 267.012,40.6833 265.5,42.5C 251.511,43.2007 237.511,43.5341 223.5,43.5C 218.684,42.3503 213.684,42.1837 208.5,43C 206.551,45.2671 204.218,46.9338 201.5,48C 200.748,48.6708 200.414,49.5041 200.5,50.5C 198.224,50.7565 197.057,52.0898 197,54.5C 194.5,57 192,59.5 189.5,62C 188.552,62.4828 187.552,62.6495 186.5,62.5C 185.586,65.3556 183.919,67.8556 181.5,70C 180.552,70.4828 179.552,70.6495 178.5,70.5C 178.5,71.5 178.5,72.5 178.5,73.5C 177.448,73.3505 176.448,73.5172 175.5,74C 173,76.5 170.5,79 168,81.5C 167.517,82.448 167.351,83.448 167.5,84.5C 165.717,85.1135 164.384,86.2802 163.5,88C 162.552,88.4828 161.552,88.6495 160.5,88.5C 160.78,91.3882 159.447,92.8882 156.5,93C 147.211,102.466 137.211,110.966 126.5,118.5C 123.089,119.723 119.756,121.223 116.5,123C 115.695,124.113 115.028,125.279 114.5,126.5C 112.42,127.044 110.42,127.878 108.5,129C 107.663,130.011 107.33,131.178 107.5,132.5C 101.574,132.447 97.5735,135.114 95.5,140.5C 90.2085,142.987 85.8751,146.654 82.5,151.5C 81.9091,154.359 80.5758,156.693 78.5,158.5C 76.0394,161.714 74.3727,165.381 73.5,169.5C 72.1818,172.258 71.5152,175.424 71.5,179C 71.5152,182.576 72.1818,185.742 73.5,188.5C 73.1832,192.702 73.5166,196.702 74.5,200.5C 74.955,202.367 75.6216,204.2 76.5,206C 74.1655,208.829 72.4989,211.996 71.5,215.5C 68.5787,222.221 67.2454,229.388 67.5,237C 67.8333,241.5 68.1667,246 68.5,250.5C 69.4147,251.328 70.0814,252.328 70.5,253.5C 68.0553,256.389 66.7219,259.723 66.5,263.5C 66.5,263.833 66.5,264.167 66.5,264.5C 65.448,264.351 64.448,264.517 63.5,265C 58.2525,269.742 53.5858,274.909 49.5,280.5C 48.5,335.496 48.1667,390.496 48.5,445.5C 44.7158,442.61 41.3824,439.276 38.5,435.5C 37.2369,431.327 35.2369,427.661 32.5,424.5C 31.9492,421.193 31.6159,417.86 31.5,414.5C 30.5,414.5 29.5,414.5 28.5,414.5C 26.447,409.102 24.447,403.602 22.5,398C 21.4683,395.783 21.4683,393.617 22.5,391.5C 21.2528,389.677 20.5861,387.677 20.5,385.5C 19.1779,385.67 18.0113,385.337 17,384.5C 15.5382,382.012 14.5382,379.345 14,376.5C 13.8315,368.812 13.3315,361.145 12.5,353.5C 10.9581,351.121 10.2914,348.454 10.5,345.5C 11.2812,334.547 11.2812,323.547 10.5,312.5C 12.7323,299.843 14.8989,287.176 17,274.5C 20.791,263.882 22.6243,252.882 22.5,241.5C 22.7043,237.563 23.7043,233.896 25.5,230.5C 26.6431,230.092 27.6431,229.425 28.5,228.5C 32.4077,219.673 36.0744,210.673 39.5,201.5C 40.0604,199.199 40.5604,196.866 41,194.5C 44.1728,190.993 46.5061,186.993 48,182.5C 51.1233,177.566 54.6233,172.9 58.5,168.5C 60.1095,164.259 62.4428,160.593 65.5,157.5C 67.0651,153.6 69.0651,149.934 71.5,146.5C 75.228,144.66 77.3946,141.66 78,137.5C 82.8271,133.761 86.4937,129.094 89,123.5C 92.3323,121.625 94.999,118.958 97,115.5C 101.451,110.926 106.118,106.592 111,102.5C 111.333,101.5 111.667,100.5 112,99.5C 117.716,95.2305 122.882,90.3971 127.5,85C 128.901,84.5899 130.234,84.0899 131.5,83.5C 132.833,83.5 133.5,82.8333 133.5,81.5C 134.953,78.6063 137.286,76.9397 140.5,76.5C 143.737,74.0511 147.403,72.3844 151.5,71.5C 153.503,69.8669 154.836,67.8669 155.5,65.5C 159.426,65.7682 163.093,64.9349 166.5,63C 175.621,56.7505 184.621,50.2505 193.5,43.5C 194.065,41.4908 195.065,39.8241 196.5,38.5C 196.369,37.6236 196.702,36.9569 197.5,36.5C 210.286,30.0501 223.286,24.0501 236.5,18.5C 239.716,17.2049 243.049,16.5382 246.5,16.5C 250.268,16.1902 253.935,15.3569 257.5,14C 264.858,13.684 272.191,13.184 279.5,12.5C 279.5,11.5 279.5,10.5 279.5,9.5C 283.899,9.06831 287.899,7.73498 291.5,5.5C 300.168,6.04596 308.501,5.04596 316.5,2.5C 329.215,1.51518 341.882,1.84852 354.5,3.5 Z"/></g>
<g><path style="opacity:0.675" fill="#8923af" d="M 291.5,5.5 C 287.899,7.73498 283.899,9.06831 279.5,9.5C 279.5,10.5 279.5,11.5 279.5,12.5C 272.191,13.184 264.858,13.684 257.5,14C 253.935,15.3569 250.268,16.1902 246.5,16.5C 246.47,15.5028 246.97,14.8361 248,14.5C 262.174,9.97452 276.674,6.97452 291.5,5.5 Z"/></g>
<g><path style="opacity:0.009" fill="#1a0521" d="M 395.5,14.5 C 397.179,14.2852 398.179,14.9519 398.5,16.5C 396.821,16.7148 395.821,16.0481 395.5,14.5 Z"/></g>
<g><path style="opacity:0.945" fill="#701d90" d="M 301.5,39.5 C 300.504,39.5858 299.671,39.2524 299,38.5C 298.503,36.1902 298.337,33.8568 298.5,31.5C 294.821,31.7244 291.154,32.0578 287.5,32.5C 291.746,30.1157 296.412,29.1157 301.5,29.5C 301.5,32.8333 301.5,36.1667 301.5,39.5 Z"/></g>
<g><path style="opacity:0.996" fill="#270f31" d="M 287.5,32.5 C 283.194,36.9336 277.861,39.267 271.5,39.5C 271.825,37.8684 272.825,36.8684 274.5,36.5C 278.703,34.6025 283.037,33.2692 287.5,32.5 Z"/></g>
<g><path style="opacity:0.997" fill="#131017" d="M 301.5,39.5 C 304.319,41.4346 307.319,43.1013 310.5,44.5C 310.47,45.4972 310.97,46.1639 312,46.5C 319.209,49.3262 326.709,50.6596 334.5,50.5C 339.222,50.4921 343.555,49.8255 347.5,48.5C 352.561,48.3186 357.561,47.6519 362.5,46.5C 364.045,46.5108 365.378,46.8442 366.5,47.5C 362.558,46.8575 359.224,47.8575 356.5,50.5C 349.552,51.4076 349.219,52.241 355.5,53C 354.944,53.3826 354.611,53.8826 354.5,54.5C 350.478,56.5084 346.812,59.0084 343.5,62C 337.644,63.95 331.977,66.2833 326.5,69C 319.524,69.8918 312.524,70.3918 305.5,70.5C 305.87,74.2886 307.203,77.622 309.5,80.5C 308.791,81.404 307.791,81.7373 306.5,81.5C 306.5,80.5 306.5,79.5 306.5,78.5C 305.5,78.5 304.5,78.5 303.5,78.5C 303.784,76.5853 303.451,74.9187 302.5,73.5C 300.934,71.1249 298.601,69.9582 295.5,70C 289.161,69.6516 282.827,69.8183 276.5,70.5C 276.611,69.8826 276.944,69.3826 277.5,69C 283.078,67.355 288.745,66.1884 294.5,65.5C 294.831,56.8078 294.498,48.1411 293.5,39.5C 289.811,38.6596 286.144,38.993 282.5,40.5C 281.287,40.7472 280.62,41.4138 280.5,42.5C 280.5,42.8333 280.5,43.1667 280.5,43.5C 279.041,43.4326 277.708,43.7659 276.5,44.5C 274.447,44.4021 272.78,45.0687 271.5,46.5C 270.833,47.1667 270.167,47.8333 269.5,48.5C 268.624,48.3691 267.957,48.7025 267.5,49.5C 264.962,54.9619 261.962,60.1286 258.5,65C 257.852,66.4397 257.519,67.9397 257.5,69.5C 255.784,69.6287 254.117,69.962 252.5,70.5C 255.71,64.172 258.71,57.8387 261.5,51.5C 262.404,50.791 262.737,49.791 262.5,48.5C 259.167,48.5 255.833,48.5 252.5,48.5C 237.462,47.8501 222.795,48.5167 208.5,50.5C 197.873,61.0985 187.706,72.0985 178,83.5C 175.828,85.2035 173.661,86.8702 171.5,88.5C 170.5,88.5 169.5,88.5 168.5,88.5C 168.649,89.552 168.483,90.552 168,91.5C 164.962,94.3694 162.129,97.3694 159.5,100.5C 156.811,102.834 154.144,105.167 151.5,107.5C 148.196,107.814 145.863,109.48 144.5,112.5C 141.143,114.795 137.809,116.962 134.5,119C 133.748,119.671 133.414,120.504 133.5,121.5C 128.978,124.512 124.311,127.345 119.5,130C 118.748,130.671 118.414,131.504 118.5,132.5C 111.317,136.844 104.317,141.511 97.5,146.5C 97.0576,147.739 96.3909,148.739 95.5,149.5C 94.5,149.5 93.5,149.5 92.5,149.5C 92.6495,150.552 92.4828,151.552 92,152.5C 90.1732,154.969 88.1732,157.302 86,159.5C 84.9207,162.063 84.4207,164.729 84.5,167.5C 82.4104,169.692 81.4104,172.359 81.5,175.5C 80.3439,183.323 80.1772,191.323 81,199.5C 81.6245,202.743 82.7912,205.743 84.5,208.5C 83.2508,211.09 81.5841,213.424 79.5,215.5C 78.7022,217.078 78.2022,218.744 78,220.5C 77.5002,230.161 77.3335,239.828 77.5,249.5C 80.5,249.167 81.8333,250.5 81.5,253.5C 80.8902,254.391 80.5569,255.391 80.5,256.5C 78.5695,256.771 77.2362,257.771 76.5,259.5C 76.7852,257.712 76.4519,256.045 75.5,254.5C 74.4763,255.853 73.143,256.52 71.5,256.5C 69.2867,242.874 69.2867,229.207 71.5,215.5C 73.0757,213.428 74.9091,211.428 77,209.5C 77.7358,206.408 77.5691,203.408 76.5,200.5C 75.9032,194.008 75.2365,187.508 74.5,181C 75.2049,173.372 76.5383,165.872 78.5,158.5C 80.5758,156.693 81.9091,154.359 82.5,151.5C 87.4449,148.679 91.7782,145.013 95.5,140.5C 101.365,136.703 107.365,133.037 113.5,129.5C 114.386,128.675 114.719,127.675 114.5,126.5C 119.194,124.734 123.194,122.067 126.5,118.5C 137.211,110.966 147.211,102.466 156.5,93C 159.447,92.8882 160.78,91.3882 160.5,88.5C 161.552,88.6495 162.552,88.4828 163.5,88C 164.384,86.2802 165.717,85.1135 167.5,84.5C 171.167,80.8333 174.833,77.1667 178.5,73.5C 178.5,72.5 178.5,71.5 178.5,70.5C 179.552,70.6495 180.552,70.4828 181.5,70C 183.919,67.8556 185.586,65.3556 186.5,62.5C 187.552,62.6495 188.552,62.4828 189.5,62C 192,59.5 194.5,57 197,54.5C 197.057,52.0898 198.224,50.7565 200.5,50.5C 201.735,50.2786 202.735,49.6119 203.5,48.5C 204.192,49.0253 204.692,49.6919 205,50.5C 206.749,48.247 208.249,45.9137 209.5,43.5C 214.167,43.5 218.833,43.5 223.5,43.5C 228.99,44.1661 234.657,44.4995 240.5,44.5C 249.054,44.6777 257.388,44.011 265.5,42.5C 267.012,40.6833 269.012,39.6833 271.5,39.5C 277.861,39.267 283.194,36.9336 287.5,32.5C 291.154,32.0578 294.821,31.7244 298.5,31.5C 298.337,33.8568 298.503,36.1902 299,38.5C 299.671,39.2524 300.504,39.5858 301.5,39.5 Z"/></g>
<g><path style="opacity:1" fill="#3a48a7" d="M 275.5,66.5 C 275.336,63.8127 275.503,61.146 276,58.5C 277.516,53.4786 279.016,48.4786 280.5,43.5C 280.5,43.1667 280.5,42.8333 280.5,42.5C 283.998,41.0832 287.665,40.4165 291.5,40.5C 291.666,47.8409 291.5,55.1742 291,62.5C 286.132,64.7034 280.965,66.0367 275.5,66.5 Z"/></g>
<g><path style="opacity:0.988" fill="#340f42" d="M 265.5,42.5 C 257.388,44.011 249.054,44.6777 240.5,44.5C 234.657,44.4995 228.99,44.1661 223.5,43.5C 237.511,43.5341 251.511,43.2007 265.5,42.5 Z"/></g>
<g><path style="opacity:0.668" fill="#9426be" d="M 196.5,38.5 C 195.065,39.8241 194.065,41.4908 193.5,43.5C 184.621,50.2505 175.621,56.7505 166.5,63C 163.093,64.9349 159.426,65.7682 155.5,65.5C 154.836,67.8669 153.503,69.8669 151.5,71.5C 147.403,72.3844 143.737,74.0511 140.5,76.5C 140.369,75.7611 140.536,75.0944 141,74.5C 150.141,66.5794 159.974,59.7461 170.5,54C 171.167,53 171.833,52 172.5,51C 178.986,47.8926 184.986,44.2259 190.5,40C 192.436,39.187 194.436,38.687 196.5,38.5 Z"/></g>
<g><path style="opacity:0.992" fill="#260e2f" d="M 223.5,43.5 C 218.833,43.5 214.167,43.5 209.5,43.5C 208.249,45.9137 206.749,48.247 205,50.5C 204.692,49.6919 204.192,49.0253 203.5,48.5C 202.735,49.6119 201.735,50.2786 200.5,50.5C 200.414,49.5041 200.748,48.6708 201.5,48C 204.218,46.9338 206.551,45.2671 208.5,43C 213.684,42.1837 218.684,42.3503 223.5,43.5 Z"/></g>
<g><path style="opacity:1" fill="#3c3e3f" d="M 252.5,48.5 C 243.225,50.4733 233.558,51.14 223.5,50.5C 218.5,50.5 213.5,50.5 208.5,50.5C 222.795,48.5167 237.462,47.8501 252.5,48.5 Z"/></g>
<g><path style="opacity:1" fill="#8d8f90" d="M 252.5,48.5 C 255.833,48.5 259.167,48.5 262.5,48.5C 262.737,49.791 262.404,50.791 261.5,51.5C 248.846,51.6536 236.18,51.3203 223.5,50.5C 233.558,51.14 243.225,50.4733 252.5,48.5 Z"/></g>
<g><path style="opacity:0.778" fill="#5e1878" d="M 310.5,44.5 C 314.374,45.9276 318.374,47.0943 322.5,48C 330.827,48.4997 339.16,48.6664 347.5,48.5C 343.555,49.8255 339.222,50.4921 334.5,50.5C 326.709,50.6596 319.209,49.3262 312,46.5C 310.97,46.1639 310.47,45.4972 310.5,44.5 Z"/></g>
<g><path style="opacity:0.997" fill="#0a080c" d="M 366.5,47.5 C 369.297,50.2439 372.631,52.4106 376.5,54C 377.823,54.8159 378.489,55.9826 378.5,57.5C 388.077,60.9566 398.077,62.9566 408.5,63.5C 410.5,63.5 412.5,63.5 414.5,63.5C 419.056,65.4417 424.056,66.1083 429.5,65.5C 429.5,66.1667 429.833,66.5 430.5,66.5C 430.281,67.675 430.614,68.675 431.5,69.5C 433.673,72.068 436.006,74.4013 438.5,76.5C 440.423,80.0293 441.089,84.0293 440.5,88.5C 438.541,94.7496 437.874,101.416 438.5,108.5C 438.313,110.564 437.813,112.564 437,114.5C 436.329,115.252 435.496,115.586 434.5,115.5C 433.378,117.288 433.211,119.288 434,121.5C 438.864,126.88 441.031,133.214 440.5,140.5C 439.275,141.152 438.608,142.319 438.5,144C 437.715,148.803 437.382,153.637 437.5,158.5C 437.103,160.963 435.936,162.963 434,164.5C 433.506,166.134 433.34,167.801 433.5,169.5C 432.127,169.343 430.793,169.51 429.5,170C 434.351,170.174 439.018,170.674 443.5,171.5C 439.908,173.586 436.741,176.253 434,179.5C 430.688,184.796 427.022,189.796 423,194.5C 419.992,200.216 416.992,205.883 414,211.5C 412,214.167 410,216.833 408,219.5C 405.884,222.922 404.384,226.588 403.5,230.5C 400.715,229.916 399.048,230.916 398.5,233.5C 395.609,234.054 393.609,235.721 392.5,238.5C 384.833,238.5 377.167,238.5 369.5,238.5C 372.194,235.14 375.194,232.14 378.5,229.5C 380.433,229.271 382.1,228.438 383.5,227C 393.702,216.965 403.702,206.798 413.5,196.5C 416.066,192.679 418.899,189.012 422,185.5C 422.497,183.19 422.663,180.857 422.5,178.5C 421.5,178.5 420.5,178.5 419.5,178.5C 419.768,176.901 419.434,175.568 418.5,174.5C 418.737,170.193 421.07,167.859 425.5,167.5C 425.795,163.488 426.795,159.655 428.5,156C 429.564,147.186 429.731,138.353 429,129.5C 427.013,127 425.179,124.333 423.5,121.5C 423.942,120.261 424.609,119.261 425.5,118.5C 426.234,117.292 426.567,115.959 426.5,114.5C 427.931,114.119 428.764,113.119 429,111.5C 429.825,100.992 429.659,90.6584 428.5,80.5C 427.071,76.2008 424.071,73.5341 419.5,72.5C 419.167,72.5 418.833,72.5 418.5,72.5C 418.5,71.5 418.5,70.5 418.5,69.5C 410.16,69.6664 401.827,69.4997 393.5,69C 393.043,68.586 392.709,68.086 392.5,67.5C 388.376,66.5787 384.21,65.9121 380,65.5C 378.319,65.3917 377.152,64.7251 376.5,63.5C 373.553,61.8913 371.22,62.558 369.5,65.5C 369.649,64.448 369.483,63.448 369,62.5C 365.93,60.5526 363.43,58.0526 361.5,55C 359.19,54.5034 356.857,54.3367 354.5,54.5C 354.611,53.8826 354.944,53.3826 355.5,53C 349.219,52.241 349.552,51.4076 356.5,50.5C 359.224,47.8575 362.558,46.8575 366.5,47.5 Z"/></g>
<g><path style="opacity:1" fill="#5d66b5" d="M 276.5,44.5 C 274.65,51.7811 272.984,59.1144 271.5,66.5C 270.5,66.5 269.5,66.5 268.5,66.5C 268.336,63.8127 268.503,61.146 269,58.5C 270.953,55.0264 272.453,51.3598 273.5,47.5C 273.043,46.7025 272.376,46.3691 271.5,46.5C 272.78,45.0687 274.447,44.4021 276.5,44.5 Z"/></g>
<g><path style="opacity:1" fill="#fcfcfc" d="M 208.5,50.5 C 213.5,50.5 218.5,50.5 223.5,50.5C 236.18,51.3203 248.846,51.6536 261.5,51.5C 258.71,57.8387 255.71,64.172 252.5,70.5C 248.962,72.4694 245.629,74.8027 242.5,77.5C 240.485,79.7074 239.485,82.3741 239.5,85.5C 238.153,84.9717 236.819,84.805 235.5,85C 231.46,87.6939 227.793,90.8605 224.5,94.5C 222.176,97.9987 219.843,101.499 217.5,105C 216.485,106.373 216.485,107.54 217.5,108.5C 217.5,109.167 217.5,109.833 217.5,110.5C 218.401,112.727 220.067,113.727 222.5,113.5C 222.881,114.931 223.881,115.764 225.5,116C 231.016,116.173 236.349,116.673 241.5,117.5C 235.7,121.424 230.033,125.591 224.5,130C 221.139,133.243 218.139,136.743 215.5,140.5C 217.988,142.388 220.988,143.055 224.5,142.5C 224.5,142.833 224.5,143.167 224.5,143.5C 222.906,146.961 220.239,148.961 216.5,149.5C 216.643,151.262 216.309,152.929 215.5,154.5C 213.639,155.528 212.305,157.028 211.5,159C 210.552,159.483 209.552,159.649 208.5,159.5C 208.649,160.552 208.483,161.552 208,162.5C 205.828,164.203 203.661,165.87 201.5,167.5C 200.691,168.469 199.691,169.302 198.5,170C 180.47,170.287 162.47,170.454 144.5,170.5C 161.683,173.493 179.016,175.159 196.5,175.5C 196.5,180.167 196.5,184.833 196.5,189.5C 194.84,197.084 193.506,204.751 192.5,212.5C 188.014,214.102 183.347,214.768 178.5,214.5C 174.833,214.5 171.167,214.5 167.5,214.5C 145.525,212.511 123.192,211.844 100.5,212.5C 98.5992,212.567 96.7659,212.233 95,211.5C 92.8586,209.512 90.3586,208.179 87.5,207.5C 85.1459,205.754 84.1459,203.421 84.5,200.5C 84.2423,190.461 84.5756,180.461 85.5,170.5C 100.17,170.667 114.837,170.5 129.5,170C 116.15,168.128 102.817,166.295 89.5,164.5C 89.5,163.167 89.5,161.833 89.5,160.5C 91.2418,156.682 93.2418,153.016 95.5,149.5C 96.3909,148.739 97.0576,147.739 97.5,146.5C 104.317,141.511 111.317,136.844 118.5,132.5C 124.654,130.338 129.654,126.671 133.5,121.5C 136.12,120.247 138.787,118.914 141.5,117.5C 142.386,116.675 142.719,115.675 142.5,114.5C 148.151,115.505 151.151,113.171 151.5,107.5C 154.144,105.167 156.811,102.834 159.5,100.5C 165.152,98.1812 169.152,94.1812 171.5,88.5C 173.661,86.8702 175.828,85.2035 178,83.5C 187.706,72.0985 197.873,61.0985 208.5,50.5 Z"/></g>
<g><path style="opacity:1" fill="#1e2452" d="M 298.5,48.5 C 302.283,50.4448 305.949,52.6114 309.5,55C 313.631,55.275 317.298,56.6083 320.5,59C 341.486,58.6687 341.819,61.002 321.5,66C 313.903,67.6695 306.236,68.8361 298.5,69.5C 298.5,62.5 298.5,55.5 298.5,48.5 Z"/></g>
<g><path style="opacity:1" fill="#dfe1ef" d="M 280.5,43.5 C 279.016,48.4786 277.516,53.4786 276,58.5C 275.503,61.146 275.336,63.8127 275.5,66.5C 274.833,66.5 274.167,66.5 273.5,66.5C 272.833,66.5 272.167,66.5 271.5,66.5C 272.984,59.1144 274.65,51.7811 276.5,44.5C 277.708,43.7659 279.041,43.4326 280.5,43.5 Z"/></g>
<g><path style="opacity:0.808" fill="#4a135f" d="M 378.5,57.5 C 389.007,57.6013 399.007,59.6013 408.5,63.5C 398.077,62.9566 388.077,60.9566 378.5,57.5 Z"/></g>
<g><path style="opacity:1" fill="#dddfed" d="M 271.5,46.5 C 272.376,46.3691 273.043,46.7025 273.5,47.5C 272.453,51.3598 270.953,55.0264 269,58.5C 268.503,61.146 268.336,63.8127 268.5,66.5C 266.801,66.5271 265.467,67.1938 264.5,68.5C 265.564,61.6982 267.231,55.0316 269.5,48.5C 270.167,47.8333 270.833,47.1667 271.5,46.5 Z"/></g>
<g><path style="opacity:1" fill="#3d489a" d="M 269.5,48.5 C 267.231,55.0316 265.564,61.6982 264.5,68.5C 262.139,68.6741 259.806,69.0074 257.5,69.5C 257.519,67.9397 257.852,66.4397 258.5,65C 261.962,60.1286 264.962,54.9619 267.5,49.5C 267.957,48.7025 268.624,48.3691 269.5,48.5 Z"/></g>
<g><path style="opacity:0.907" fill="#411153" d="M 414.5,63.5 C 419.944,62.8917 424.944,63.5583 429.5,65.5C 424.056,66.1083 419.056,65.4417 414.5,63.5 Z"/></g>
<g><path style="opacity:1" fill="#2a357a" d="M 276.5,70.5 C 275.1,69.9002 274.1,68.9002 273.5,67.5C 273.5,67.1667 273.5,66.8333 273.5,66.5C 274.167,66.5 274.833,66.5 275.5,66.5C 280.965,66.0367 286.132,64.7034 291,62.5C 291.5,55.1742 291.666,47.8409 291.5,40.5C 287.665,40.4165 283.998,41.0832 280.5,42.5C 280.62,41.4138 281.287,40.7472 282.5,40.5C 286.144,38.993 289.811,38.6596 293.5,39.5C 294.498,48.1411 294.831,56.8078 294.5,65.5C 288.745,66.1884 283.078,67.355 277.5,69C 276.944,69.3826 276.611,69.8826 276.5,70.5 Z"/></g>
<g><path style="opacity:1" fill="#af1a21" d="M 268.5,66.5 C 269.5,66.5 270.5,66.5 271.5,66.5C 272.167,66.5 272.833,66.5 273.5,66.5C 273.5,66.8333 273.5,67.1667 273.5,67.5C 273.558,70.6644 274.224,73.6644 275.5,76.5C 271.549,73.9569 267.215,73.1236 262.5,74C 260.229,76.0924 257.563,77.4257 254.5,78C 253.279,80.0337 251.945,81.867 250.5,83.5C 247.827,81.4918 245.16,79.4918 242.5,77.5C 245.629,74.8027 248.962,72.4694 252.5,70.5C 254.117,69.962 255.784,69.6287 257.5,69.5C 259.806,69.0074 262.139,68.6741 264.5,68.5C 265.467,67.1938 266.801,66.5271 268.5,66.5 Z"/></g>
<g><path style="opacity:1" fill="#bcbebe" d="M 376.5,63.5 C 377.152,64.7251 378.319,65.3917 380,65.5C 384.21,65.9121 388.376,66.5787 392.5,67.5C 392.709,68.086 393.043,68.586 393.5,69C 401.827,69.4997 410.16,69.6664 418.5,69.5C 418.5,70.5 418.5,71.5 418.5,72.5C 406.503,71.1004 394.503,69.7671 382.5,68.5C 377.908,68.4772 373.575,69.4772 369.5,71.5C 370.546,68.8097 371.546,66.1431 372.5,63.5C 373.833,63.5 375.167,63.5 376.5,63.5 Z"/></g>
<g><path style="opacity:1" fill="#3e4aa2" d="M 354.5,54.5 C 356.857,54.3367 359.19,54.5034 361.5,55C 363.43,58.0526 365.93,60.5526 369,62.5C 369.483,63.448 369.649,64.448 369.5,65.5C 363.965,70.4388 358.632,75.6055 353.5,81C 348.431,85.7138 342.765,89.7138 336.5,93C 334.22,96.4287 331.22,98.9287 327.5,100.5C 326.548,98.9547 326.215,97.288 326.5,95.5C 340.037,84.7787 353.37,73.7787 366.5,62.5C 365.277,61.3861 363.944,61.2195 362.5,62C 354.39,68.7879 346.39,75.6213 338.5,82.5C 334.199,84.8279 330.532,87.8279 327.5,91.5C 326.167,89.5 326.167,87.5 327.5,85.5C 337.821,77.5159 348.154,69.5159 358.5,61.5C 359.5,60.5 360.5,59.5 361.5,58.5C 361,58.1667 360.5,57.8333 360,57.5C 356.566,60.4221 352.733,62.7554 348.5,64.5C 343.096,70.5588 336.763,75.5588 329.5,79.5C 328.157,81.8366 326.49,83.8366 324.5,85.5C 321.917,84.015 320.584,81.6817 320.5,78.5C 319.178,78.67 318.011,78.3366 317,77.5C 314.536,78.6508 312.036,79.6508 309.5,80.5C 307.203,77.622 305.87,74.2886 305.5,70.5C 312.524,70.3918 319.524,69.8918 326.5,69C 331.977,66.2833 337.644,63.95 343.5,62C 346.812,59.0084 350.478,56.5084 354.5,54.5 Z"/></g>
<g><path style="opacity:1" fill="#fbfbfb" d="M 418.5,72.5 C 418.833,72.5 419.167,72.5 419.5,72.5C 419.5,73.1667 419.5,73.8333 419.5,74.5C 420.367,83.2702 419.034,91.6035 415.5,99.5C 414.66,101.792 413.66,104.125 412.5,106.5C 406.976,111.859 401.31,117.025 395.5,122C 394.5,122.333 393.5,122.667 392.5,123C 380.283,137.222 367.283,150.888 353.5,164C 349.828,166.03 346.495,168.364 343.5,171C 341.344,172.99 339.344,175.157 337.5,177.5C 336.264,178.246 334.93,178.579 333.5,178.5C 330.031,177.887 328.031,179.221 327.5,182.5C 309.577,184.164 291.577,184.997 273.5,185C 289.808,186.259 306.142,186.759 322.5,186.5C 323.822,189.17 324.822,192.003 325.5,195C 323.666,199.926 321.999,204.926 320.5,210C 317.998,213.993 315.331,217.826 312.5,221.5C 310.631,222.624 308.631,223.457 306.5,224C 300.175,224.5 293.842,224.666 287.5,224.5C 264.265,221.513 240.931,219.679 217.5,219C 214.949,218.998 212.949,218.164 211.5,216.5C 211.935,208.32 212.601,200.153 213.5,192C 213.167,190.167 212.833,188.333 212.5,186.5C 209.865,195.967 208.865,205.634 209.5,215.5C 205.5,215.5 201.5,215.5 197.5,215.5C 198.458,200.918 200.125,186.418 202.5,172C 209.322,164.011 216.656,156.511 224.5,149.5C 225.842,151.005 227.508,151.672 229.5,151.5C 229.351,150.448 229.517,149.448 230,148.5C 231.627,147.468 232.793,146.134 233.5,144.5C 241.355,134.311 251.022,126.311 262.5,120.5C 261.962,122.117 261.629,123.784 261.5,125.5C 256.341,135.028 251.008,144.362 245.5,153.5C 242.972,154.518 243.139,155.518 246,156.5C 249.717,154.982 253.551,153.982 257.5,153.5C 258.338,153.842 258.672,154.508 258.5,155.5C 259.072,158.244 260.738,159.077 263.5,158C 264.711,155.103 266.378,152.603 268.5,150.5C 270.776,150.244 271.943,148.91 272,146.5C 272.866,149.531 274.366,152.197 276.5,154.5C 277.325,155.386 278.325,155.719 279.5,155.5C 277.352,150.609 276.018,145.443 275.5,140C 276.723,136.616 277.723,133.116 278.5,129.5C 278.5,128.5 278.5,127.5 278.5,126.5C 280.216,126.629 281.883,126.962 283.5,127.5C 283.5,127.833 283.5,128.167 283.5,128.5C 284.975,130.41 286.975,131.576 289.5,132C 294.167,132.667 298.833,132.667 303.5,132C 306.377,129.613 309.044,126.946 311.5,124C 312.448,123.517 313.448,123.351 314.5,123.5C 314.59,120.654 315.756,118.321 318,116.5C 318.833,112.5 319.667,108.5 320.5,104.5C 321.736,103.754 323.07,103.421 324.5,103.5C 326.772,104.764 329.105,104.598 331.5,103C 344.956,93.2148 357.623,82.7148 369.5,71.5C 373.575,69.4772 377.908,68.4772 382.5,68.5C 394.503,69.7671 406.503,71.1004 418.5,72.5 Z"/></g>
<g><path style="opacity:0.941" fill="#2e0d3b" d="M 430.5,66.5 C 432.437,68.0908 434.437,69.7575 436.5,71.5C 437.95,72.8498 438.617,74.5165 438.5,76.5C 436.006,74.4013 433.673,72.068 431.5,69.5C 430.614,68.675 430.281,67.675 430.5,66.5 Z"/></g>
<g><path style="opacity:1" fill="#ebecec" d="M 287.5,71.5 C 289.288,71.2148 290.955,71.5481 292.5,72.5C 288.094,77.9001 283.428,82.9001 278.5,87.5C 277.514,83.03 277.181,78.3633 277.5,73.5C 280.833,72.8333 284.167,72.1667 287.5,71.5 Z"/></g>
<g><path style="opacity:1" fill="#a2a4a5" d="M 287.5,71.5 C 291.577,70.3178 295.577,70.6511 299.5,72.5C 297.173,72.2471 295.173,72.9137 293.5,74.5C 289.418,81.4989 284.085,87.1655 277.5,91.5C 277.833,90.1667 278.167,88.8333 278.5,87.5C 283.428,82.9001 288.094,77.9001 292.5,72.5C 290.955,71.5481 289.288,71.2148 287.5,71.5 Z"/></g>
<g><path style="opacity:1" fill="#d3d6eb" d="M 327.5,85.5 C 326.5,85.5 325.5,85.5 324.5,85.5C 326.49,83.8366 328.157,81.8366 329.5,79.5C 336.763,75.5588 343.096,70.5588 348.5,64.5C 352.733,62.7554 356.566,60.4221 360,57.5C 360.5,57.8333 361,58.1667 361.5,58.5C 360.5,59.5 359.5,60.5 358.5,61.5C 348.154,69.5159 337.821,77.5159 327.5,85.5 Z"/></g>
<g><path style="opacity:1" fill="#f1f1f0" d="M 299.5,72.5 C 299.5,72.8333 299.5,73.1667 299.5,73.5C 301.5,75.5286 301.833,77.8619 300.5,80.5C 297.8,83.1733 295.133,85.84 292.5,88.5C 291.045,90.1343 289.378,91.4676 287.5,92.5C 284.105,94.9506 280.605,97.2839 277,99.5C 276.506,101.134 276.34,102.801 276.5,104.5C 273.151,104.127 272.151,102.46 273.5,99.5C 274.268,96.6307 275.601,93.9641 277.5,91.5C 284.085,87.1655 289.418,81.4989 293.5,74.5C 295.173,72.9137 297.173,72.2471 299.5,72.5 Z"/></g>
<g><path style="opacity:0.922" fill="#4d1463" d="M 178.5,73.5 C 174.833,77.1667 171.167,80.8333 167.5,84.5C 167.351,83.448 167.517,82.448 168,81.5C 170.5,79 173,76.5 175.5,74C 176.448,73.5172 177.448,73.3505 178.5,73.5 Z"/></g>
<g><path style="opacity:1" fill="#4b4a4b" d="M 273.5,67.5 C 274.1,68.9002 275.1,69.9002 276.5,70.5C 282.827,69.8183 289.161,69.6516 295.5,70C 298.601,69.9582 300.934,71.1249 302.5,73.5C 301.5,73.5 300.5,73.5 299.5,73.5C 299.5,73.1667 299.5,72.8333 299.5,72.5C 295.577,70.6511 291.577,70.3178 287.5,71.5C 284.167,72.1667 280.833,72.8333 277.5,73.5C 277.181,78.3633 277.514,83.03 278.5,87.5C 278.167,88.8333 277.833,90.1667 277.5,91.5C 275.601,93.9641 274.268,96.6307 273.5,99.5C 272.876,99.0831 272.543,98.4164 272.5,97.5C 274.654,90.664 275.654,83.664 275.5,76.5C 274.224,73.6644 273.558,70.6644 273.5,67.5 Z"/></g>
<g><path style="opacity:1" fill="#c0c0c1" d="M 299.5,73.5 C 300.5,73.5 301.5,73.5 302.5,73.5C 303.451,74.9187 303.784,76.5853 303.5,78.5C 304.5,78.5 305.5,78.5 306.5,78.5C 306.5,79.5 306.5,80.5 306.5,81.5C 306.53,82.4972 306.03,83.1639 305,83.5C 300.49,84.5621 296.323,86.2287 292.5,88.5C 295.133,85.84 297.8,83.1733 300.5,80.5C 301.833,77.8619 301.5,75.5286 299.5,73.5 Z"/></g>
<g><path style="opacity:0.004" fill="#1d0826" d="M 133.5,81.5 C 133.5,82.8333 132.833,83.5 131.5,83.5C 131.5,82.1667 132.167,81.5 133.5,81.5 Z"/></g>
<g><path style="opacity:1" fill="#bc1a25" d="M 324.5,85.5 C 324.357,87.2624 324.691,88.9291 325.5,90.5C 325.232,93.9611 324.232,96.9611 322.5,99.5C 312.649,98.7343 302.649,98.7343 292.5,99.5C 292.313,97.4357 291.813,95.4357 291,93.5C 289.989,92.6634 288.822,92.33 287.5,92.5C 289.378,91.4676 291.045,90.1343 292.5,88.5C 296.323,86.2287 300.49,84.5621 305,83.5C 306.03,83.1639 306.53,82.4972 306.5,81.5C 307.791,81.7373 308.791,81.404 309.5,80.5C 312.036,79.6508 314.536,78.6508 317,77.5C 318.011,78.3366 319.178,78.67 320.5,78.5C 320.584,81.6817 321.917,84.015 324.5,85.5 Z"/></g>
<g><path style="opacity:1" fill="#d7daec" d="M 326.5,95.5 C 326.433,94.0413 326.766,92.7079 327.5,91.5C 330.532,87.8279 334.199,84.8279 338.5,82.5C 346.39,75.6213 354.39,68.7879 362.5,62C 363.944,61.2195 365.277,61.3861 366.5,62.5C 353.37,73.7787 340.037,84.7787 326.5,95.5 Z"/></g>
<g><path style="opacity:1" fill="#8d8f90" d="M 428.5,80.5 C 429.659,90.6584 429.825,100.992 429,111.5C 428.764,113.119 427.931,114.119 426.5,114.5C 428.148,103.248 428.815,91.9148 428.5,80.5 Z"/></g>
<g><path style="opacity:1" fill="#b11921" d="M 239.5,85.5 C 242.003,86.2555 244.337,87.2555 246.5,88.5C 238.86,89.8107 233.193,93.8107 229.5,100.5C 228.534,102.396 228.201,104.396 228.5,106.5C 224.613,106.646 220.946,107.313 217.5,108.5C 216.485,107.54 216.485,106.373 217.5,105C 219.843,101.499 222.176,97.9987 224.5,94.5C 227.793,90.8605 231.46,87.6939 235.5,85C 236.819,84.805 238.153,84.9717 239.5,85.5 Z"/></g>
<g><path style="opacity:1" fill="#8d1917" d="M 242.5,77.5 C 245.16,79.4918 247.827,81.4918 250.5,83.5C 255.748,87.2782 260.581,91.6115 265,96.5C 265.667,97.5 265.667,98.5 265,99.5C 262.366,97.4415 259.866,95.2748 257.5,93C 254.71,92.4391 252.377,91.1058 250.5,89C 249.207,88.51 247.873,88.3433 246.5,88.5C 244.337,87.2555 242.003,86.2555 239.5,85.5C 239.485,82.3741 240.485,79.7074 242.5,77.5 Z"/></g>
<g><path style="opacity:1" fill="#c71b27" d="M 275.5,76.5 C 275.654,83.664 274.654,90.664 272.5,97.5C 272.543,98.4164 272.876,99.0831 273.5,99.5C 272.151,102.46 273.151,104.127 276.5,104.5C 276.443,105.609 276.11,106.609 275.5,107.5C 272.843,107.747 270.51,108.747 268.5,110.5C 267.476,109.147 266.143,108.48 264.5,108.5C 264.5,107.167 264.5,105.833 264.5,104.5C 252.579,102.897 240.579,103.564 228.5,106.5C 228.201,104.396 228.534,102.396 229.5,100.5C 233.193,93.8107 238.86,89.8107 246.5,88.5C 247.873,88.3433 249.207,88.51 250.5,89C 252.377,91.1058 254.71,92.4391 257.5,93C 259.866,95.2748 262.366,97.4415 265,99.5C 265.667,98.5 265.667,97.5 265,96.5C 260.581,91.6115 255.748,87.2782 250.5,83.5C 251.945,81.867 253.279,80.0337 254.5,78C 257.563,77.4257 260.229,76.0924 262.5,74C 267.215,73.1236 271.549,73.9569 275.5,76.5 Z"/></g>
<g><path style="opacity:1" fill="#272831" d="M 376.5,63.5 C 375.167,63.5 373.833,63.5 372.5,63.5C 371.546,66.1431 370.546,68.8097 369.5,71.5C 357.623,82.7148 344.956,93.2148 331.5,103C 329.105,104.598 326.772,104.764 324.5,103.5C 323.449,102.778 322.782,101.778 322.5,100.5C 322.5,100.167 322.5,99.8333 322.5,99.5C 324.232,96.9611 325.232,93.9611 325.5,90.5C 324.691,88.9291 324.357,87.2624 324.5,85.5C 325.5,85.5 326.5,85.5 327.5,85.5C 326.167,87.5 326.167,89.5 327.5,91.5C 326.766,92.7079 326.433,94.0413 326.5,95.5C 326.215,97.288 326.548,98.9547 327.5,100.5C 331.22,98.9287 334.22,96.4287 336.5,93C 342.765,89.7138 348.431,85.7138 353.5,81C 358.632,75.6055 363.965,70.4388 369.5,65.5C 371.22,62.558 373.553,61.8913 376.5,63.5 Z"/></g>
<g><path style="opacity:1" fill="#9fa1a1" d="M 171.5,88.5 C 169.152,94.1812 165.152,98.1812 159.5,100.5C 162.129,97.3694 164.962,94.3694 168,91.5C 168.483,90.552 168.649,89.552 168.5,88.5C 169.5,88.5 170.5,88.5 171.5,88.5 Z"/></g>
<g><path style="opacity:1" fill="#8f1817" d="M 322.5,99.5 C 322.5,99.8333 322.5,100.167 322.5,100.5C 320.868,101.446 319.201,102.446 317.5,103.5C 316.614,104.325 316.281,105.325 316.5,106.5C 314.661,105.418 312.661,104.585 310.5,104C 303.681,103.271 297.014,102.771 290.5,102.5C 286.869,103.412 283.203,103.579 279.5,103C 284.081,102.285 288.414,101.118 292.5,99.5C 302.649,98.7343 312.649,98.7343 322.5,99.5 Z"/></g>
<g><path style="opacity:1" fill="#c4c6c7" d="M 419.5,72.5 C 424.071,73.5341 427.071,76.2008 428.5,80.5C 428.815,91.9148 428.148,103.248 426.5,114.5C 426.567,115.959 426.234,117.292 425.5,118.5C 424.833,118.5 424.167,118.5 423.5,118.5C 425.902,105.966 426.736,93.2994 426,80.5C 425.804,82.9045 424.638,84.5711 422.5,85.5C 422.112,81.411 421.112,77.7443 419.5,74.5C 419.5,73.8333 419.5,73.1667 419.5,72.5 Z"/></g>
<g><path style="opacity:1" fill="#e5222b" d="M 287.5,92.5 C 288.822,92.33 289.989,92.6634 291,93.5C 291.813,95.4357 292.313,97.4357 292.5,99.5C 288.414,101.118 284.081,102.285 279.5,103C 283.203,103.579 286.869,103.412 290.5,102.5C 290.799,104.604 290.466,106.604 289.5,108.5C 288.305,110.121 287.305,111.787 286.5,113.5C 282.942,111.517 279.275,109.517 275.5,107.5C 276.11,106.609 276.443,105.609 276.5,104.5C 276.34,102.801 276.506,101.134 277,99.5C 280.605,97.2839 284.105,94.9506 287.5,92.5 Z"/></g>
<g><path style="opacity:1" fill="#8b1713" d="M 275.5,107.5 C 279.275,109.517 282.942,111.517 286.5,113.5C 289.802,117.468 293.468,121.135 297.5,124.5C 298.95,125.85 299.617,127.516 299.5,129.5C 300.5,129.5 301.5,129.5 302.5,129.5C 296.233,130.788 289.9,130.455 283.5,128.5C 283.5,128.167 283.5,127.833 283.5,127.5C 281.736,125.879 279.736,124.546 277.5,123.5C 276.713,121.896 275.38,121.229 273.5,121.5C 273.5,120.5 273.5,119.5 273.5,118.5C 270.05,117.756 268.384,119.09 268.5,122.5C 265.509,122.166 263.176,123.166 261.5,125.5C 261.629,123.784 261.962,122.117 262.5,120.5C 263.968,119.221 264.635,117.554 264.5,115.5C 261.167,117.5 257.833,119.5 254.5,121.5C 252.933,118.669 253.599,116.335 256.5,114.5C 254.395,113.364 252.228,112.364 250,111.5C 248.566,111.862 247.399,112.528 246.5,113.5C 238.504,114.783 230.504,114.783 222.5,113.5C 221.514,111.592 219.848,110.592 217.5,110.5C 217.5,109.833 217.5,109.167 217.5,108.5C 220.946,107.313 224.613,106.646 228.5,106.5C 240.579,103.564 252.579,102.897 264.5,104.5C 264.5,105.833 264.5,107.167 264.5,108.5C 266.143,108.48 267.476,109.147 268.5,110.5C 270.51,108.747 272.843,107.747 275.5,107.5 Z"/></g>
<g><path style="opacity:0.62" fill="#57166f" d="M 440.5,88.5 C 441.126,95.5837 440.459,102.25 438.5,108.5C 437.874,101.416 438.541,94.7496 440.5,88.5 Z"/></g>
<g><path style="opacity:1" fill="#b61922" d="M 290.5,102.5 C 297.014,102.771 303.681,103.271 310.5,104C 312.661,104.585 314.661,105.418 316.5,106.5C 317.239,106.369 317.906,106.536 318.5,107C 315.944,116.565 310.611,124.065 302.5,129.5C 301.5,129.5 300.5,129.5 299.5,129.5C 299.617,127.516 298.95,125.85 297.5,124.5C 293.468,121.135 289.802,117.468 286.5,113.5C 287.305,111.787 288.305,110.121 289.5,108.5C 290.466,106.604 290.799,104.604 290.5,102.5 Z"/></g>
<g><path style="opacity:1" fill="#696565" d="M 217.5,110.5 C 219.848,110.592 221.514,111.592 222.5,113.5C 220.067,113.727 218.401,112.727 217.5,110.5 Z"/></g>
<g><path style="opacity:1" fill="#c2c3c4" d="M 151.5,107.5 C 151.151,113.171 148.151,115.505 142.5,114.5C 142.719,115.675 142.386,116.675 141.5,117.5C 138.787,118.914 136.12,120.247 133.5,121.5C 133.414,120.504 133.748,119.671 134.5,119C 137.809,116.962 141.143,114.795 144.5,112.5C 145.863,109.48 148.196,107.814 151.5,107.5 Z"/></g>
<g><path style="opacity:1" fill="#636060" d="M 222.5,113.5 C 230.504,114.783 238.504,114.783 246.5,113.5C 244.862,114.832 243.196,116.166 241.5,117.5C 236.349,116.673 231.016,116.173 225.5,116C 223.881,115.764 222.881,114.931 222.5,113.5 Z"/></g>
<g><path style="opacity:1" fill="#bd1a25" d="M 254.5,121.5 C 245.385,129.149 236.551,137.149 228,145.5C 227.517,146.448 227.351,147.448 227.5,148.5C 227.028,146.469 226.028,144.802 224.5,143.5C 224.5,143.167 224.5,142.833 224.5,142.5C 222.012,140.612 219.012,139.945 215.5,140.5C 218.139,136.743 221.139,133.243 224.5,130C 230.033,125.591 235.7,121.424 241.5,117.5C 243.196,116.166 244.862,114.832 246.5,113.5C 247.399,112.528 248.566,111.862 250,111.5C 252.228,112.364 254.395,113.364 256.5,114.5C 253.599,116.335 252.933,118.669 254.5,121.5 Z"/></g>
<g><path style="opacity:1" fill="#585757" d="M 262.5,120.5 C 251.022,126.311 241.355,134.311 233.5,144.5C 231.228,145.441 229.228,146.774 227.5,148.5C 227.351,147.448 227.517,146.448 228,145.5C 236.551,137.149 245.385,129.149 254.5,121.5C 257.833,119.5 261.167,117.5 264.5,115.5C 264.635,117.554 263.968,119.221 262.5,120.5 Z"/></g>
<g><path style="opacity:0.788" fill="#3e114f" d="M 434.5,115.5 C 435.967,120.475 438.134,125.141 441,129.5C 441.81,133.358 441.643,137.024 440.5,140.5C 441.031,133.214 438.864,126.88 434,121.5C 433.211,119.288 433.378,117.288 434.5,115.5 Z"/></g>
<g><path style="opacity:0.941" fill="#531569" d="M 126.5,118.5 C 123.194,122.067 119.194,124.734 114.5,126.5C 115.028,125.279 115.695,124.113 116.5,123C 119.756,121.223 123.089,119.723 126.5,118.5 Z"/></g>
<g><path style="opacity:1" fill="#5e5e5e" d="M 322.5,100.5 C 322.782,101.778 323.449,102.778 324.5,103.5C 323.07,103.421 321.736,103.754 320.5,104.5C 319.667,108.5 318.833,112.5 318,116.5C 315.756,118.321 314.59,120.654 314.5,123.5C 313.448,123.351 312.448,123.517 311.5,124C 309.044,126.946 306.377,129.613 303.5,132C 298.833,132.667 294.167,132.667 289.5,132C 286.975,131.576 284.975,130.41 283.5,128.5C 289.9,130.455 296.233,130.788 302.5,129.5C 310.611,124.065 315.944,116.565 318.5,107C 317.906,106.536 317.239,106.369 316.5,106.5C 316.281,105.325 316.614,104.325 317.5,103.5C 319.201,102.446 320.868,101.446 322.5,100.5 Z"/></g>
<g><path style="opacity:1" fill="#545353" d="M 277.5,123.5 C 279.736,124.546 281.736,125.879 283.5,127.5C 281.883,126.962 280.216,126.629 278.5,126.5C 278.5,127.5 278.5,128.5 278.5,129.5C 275.315,136.581 271.982,143.581 268.5,150.5C 266.378,152.603 264.711,155.103 263.5,158C 260.738,159.077 259.072,158.244 258.5,155.5C 259.496,155.414 260.329,155.748 261,156.5C 268.658,146.733 274.158,135.733 277.5,123.5 Z"/></g>
<g><path style="opacity:1" fill="#50585d" d="M 423.5,118.5 C 424.167,118.5 424.833,118.5 425.5,118.5C 424.609,119.261 423.942,120.261 423.5,121.5C 425.179,124.333 427.013,127 429,129.5C 429.731,138.353 429.564,147.186 428.5,156C 426.795,159.655 425.795,163.488 425.5,167.5C 421.07,167.859 418.737,170.193 418.5,174.5C 417.167,174.5 415.833,174.5 414.5,174.5C 414.649,175.552 414.483,176.552 414,177.5C 410.266,179.846 407.766,183.179 406.5,187.5C 399.988,195.57 392.822,202.903 385,209.5C 384.261,211.221 383.427,212.887 382.5,214.5C 374.966,220.905 367.966,227.739 361.5,235C 359.27,236.885 356.77,238.385 354,239.5C 353.56,241.076 352.727,242.41 351.5,243.5C 351.957,244.298 352.624,244.631 353.5,244.5C 353.5,244.833 353.5,245.167 353.5,245.5C 352.5,245.5 351.5,245.5 350.5,245.5C 349.448,245.351 348.448,245.517 347.5,246C 341.741,253.097 335.074,259.097 327.5,264C 315.802,266.376 304.135,267.876 292.5,268.5C 290.596,266.678 288.596,265.012 286.5,263.5C 297.949,263.663 309.282,262.663 320.5,260.5C 322.645,250.895 322.978,241.228 321.5,231.5C 306.372,231.216 291.372,229.716 276.5,227C 280.152,226.501 283.818,226.335 287.5,226.5C 298.797,227.351 309.797,226.184 320.5,223C 331.259,212.778 342.259,202.778 353.5,193C 354.191,191.933 354.691,190.766 355,189.5C 365.204,179.63 375.037,169.464 384.5,159C 385.448,158.517 386.448,158.351 387.5,158.5C 387.491,156.692 387.991,155.025 389,153.5C 398.667,144.167 408.333,134.833 418,125.5C 418.483,124.552 418.649,123.552 418.5,122.5C 421.4,122.592 423.067,121.259 423.5,118.5 Z"/></g>
<g><path style="opacity:0.98" fill="#340f43" d="M 114.5,126.5 C 114.719,127.675 114.386,128.675 113.5,129.5C 107.365,133.037 101.365,136.703 95.5,140.5C 97.5735,135.114 101.574,132.447 107.5,132.5C 107.33,131.178 107.663,130.011 108.5,129C 110.42,127.878 112.42,127.044 114.5,126.5 Z"/></g>
<g><path style="opacity:1" fill="#949697" d="M 133.5,121.5 C 129.654,126.671 124.654,130.338 118.5,132.5C 118.414,131.504 118.748,130.671 119.5,130C 124.311,127.345 128.978,124.512 133.5,121.5 Z"/></g>
<g><path style="opacity:1" fill="#bc1a25" d="M 277.5,123.5 C 274.158,135.733 268.658,146.733 261,156.5C 260.329,155.748 259.496,155.414 258.5,155.5C 258.672,154.508 258.338,153.842 257.5,153.5C 257.038,152.12 256.038,151.453 254.5,151.5C 251.58,152.586 248.58,153.252 245.5,153.5C 251.008,144.362 256.341,135.028 261.5,125.5C 263.176,123.166 265.509,122.166 268.5,122.5C 268.384,119.09 270.05,117.756 273.5,118.5C 273.5,119.5 273.5,120.5 273.5,121.5C 275.38,121.229 276.713,121.896 277.5,123.5 Z"/></g>
<g><path style="opacity:1" fill="#c0c2c3" d="M 329.5,110.5 C 332.867,110.457 336.201,110.79 339.5,111.5C 348.883,113.65 358.216,115.983 367.5,118.5C 368.833,120.167 368.833,121.833 367.5,123.5C 357.99,135.588 347.99,147.255 337.5,158.5C 335.193,159.83 332.859,161.163 330.5,162.5C 323.44,163.116 316.44,164.116 309.5,165.5C 300.525,166.498 291.525,166.832 282.5,166.5C 280.639,164.255 279.639,161.588 279.5,158.5C 282.541,158.406 284.207,159.906 284.5,163C 300.383,164.06 316.049,162.727 331.5,159C 338.863,153.202 344.863,146.369 349.5,138.5C 352.153,136.845 354.486,134.845 356.5,132.5C 357.784,129.718 359.617,127.385 362,125.5C 363.128,123.655 363.628,121.655 363.5,119.5C 358.178,118.971 352.844,118.471 347.5,118C 341.614,116.015 335.614,114.515 329.5,113.5C 329.5,112.5 329.5,111.5 329.5,110.5 Z"/></g>
<g><path style="opacity:1" fill="#bdbfc0" d="M 415.5,99.5 C 416.586,99.62 417.253,100.287 417.5,101.5C 416.388,103.39 415.554,105.39 415,107.5C 412.167,110.5 409.333,113.5 406.5,116.5C 402.994,118.525 399.661,120.692 396.5,123C 395.663,124.011 395.33,125.178 395.5,126.5C 393.24,127.139 391.24,128.306 389.5,130C 387.747,131.999 386.413,134.165 385.5,136.5C 390.588,135.01 395.755,133.676 401,132.5C 404.062,130.217 407.229,128.217 410.5,126.5C 410.719,127.675 410.386,128.675 409.5,129.5C 407.884,130.115 406.551,131.115 405.5,132.5C 395.095,135.932 385.095,140.266 375.5,145.5C 363.535,158.439 350.868,170.439 337.5,181.5C 335.929,182.309 334.262,182.643 332.5,182.5C 332.433,181.041 332.766,179.708 333.5,178.5C 334.93,178.579 336.264,178.246 337.5,177.5C 339.344,175.157 341.344,172.99 343.5,171C 346.495,168.364 349.828,166.03 353.5,164C 367.283,150.888 380.283,137.222 392.5,123C 393.5,122.667 394.5,122.333 395.5,122C 401.31,117.025 406.976,111.859 412.5,106.5C 413.66,104.125 414.66,101.792 415.5,99.5 Z"/></g>
<g><path style="opacity:1" fill="#e8eaeb" d="M 419.5,74.5 C 421.112,77.7443 422.112,81.411 422.5,85.5C 424.638,84.5711 425.804,82.9045 426,80.5C 426.736,93.2994 425.902,105.966 423.5,118.5C 423.067,121.259 421.4,122.592 418.5,122.5C 418.649,123.552 418.483,124.552 418,125.5C 408.333,134.833 398.667,144.167 389,153.5C 387.991,155.025 387.491,156.692 387.5,158.5C 386.448,158.351 385.448,158.517 384.5,159C 375.037,169.464 365.204,179.63 355,189.5C 354.691,190.766 354.191,191.933 353.5,193C 342.259,202.778 331.259,212.778 320.5,223C 309.797,226.184 298.797,227.351 287.5,226.5C 287.5,225.833 287.5,225.167 287.5,224.5C 293.842,224.666 300.175,224.5 306.5,224C 308.631,223.457 310.631,222.624 312.5,221.5C 315.331,217.826 317.998,213.993 320.5,210C 321.999,204.926 323.666,199.926 325.5,195C 324.822,192.003 323.822,189.17 322.5,186.5C 306.142,186.759 289.808,186.259 273.5,185C 291.577,184.997 309.577,184.164 327.5,182.5C 328.031,179.221 330.031,177.887 333.5,178.5C 332.766,179.708 332.433,181.041 332.5,182.5C 334.262,182.643 335.929,182.309 337.5,181.5C 350.868,170.439 363.535,158.439 375.5,145.5C 385.095,140.266 395.095,135.932 405.5,132.5C 406.551,131.115 407.884,130.115 409.5,129.5C 410.386,128.675 410.719,127.675 410.5,126.5C 407.229,128.217 404.062,130.217 401,132.5C 395.755,133.676 390.588,135.01 385.5,136.5C 386.413,134.165 387.747,131.999 389.5,130C 391.24,128.306 393.24,127.139 395.5,126.5C 395.33,125.178 395.663,124.011 396.5,123C 399.661,120.692 402.994,118.525 406.5,116.5C 409.333,113.5 412.167,110.5 415,107.5C 415.554,105.39 416.388,103.39 417.5,101.5C 417.253,100.287 416.586,99.62 415.5,99.5C 419.034,91.6035 420.367,83.2702 419.5,74.5 Z"/></g>
<g><path style="opacity:1" fill="#6c6c6c" d="M 215.5,140.5 C 219.012,139.945 222.012,140.612 224.5,142.5C 220.988,143.055 217.988,142.388 215.5,140.5 Z"/></g>
<g><path style="opacity:0.58" fill="#380e48" d="M 440.5,140.5 C 439.86,146.683 438.86,152.683 437.5,158.5C 437.382,153.637 437.715,148.803 438.5,144C 438.608,142.319 439.275,141.152 440.5,140.5 Z"/></g>
<g><path style="opacity:0.937" fill="#360e45" d="M 95.5,140.5 C 91.7782,145.013 87.4449,148.679 82.5,151.5C 85.8751,146.654 90.2085,142.987 95.5,140.5 Z"/></g>
<g><path style="opacity:1" fill="#cbcbcc" d="M 278.5,129.5 C 277.723,133.116 276.723,136.616 275.5,140C 276.018,145.443 277.352,150.609 279.5,155.5C 278.325,155.719 277.325,155.386 276.5,154.5C 274.366,152.197 272.866,149.531 272,146.5C 271.943,148.91 270.776,150.244 268.5,150.5C 271.982,143.581 275.315,136.581 278.5,129.5 Z"/></g>
<g><path style="opacity:1" fill="#695d5d" d="M 257.5,153.5 C 253.551,153.982 249.717,154.982 246,156.5C 243.139,155.518 242.972,154.518 245.5,153.5C 248.58,153.252 251.58,152.586 254.5,151.5C 256.038,151.453 257.038,152.12 257.5,153.5 Z"/></g>
<g><path style="opacity:1" fill="#cacccc" d="M 245.5,138.5 C 246.497,138.47 247.164,138.97 247.5,140C 246.971,141.559 246.304,143.059 245.5,144.5C 236.819,153.014 228.319,161.681 220,170.5C 219.517,171.448 219.351,172.448 219.5,173.5C 225.5,173.5 231.5,173.5 237.5,173.5C 237.5,174.833 237.5,176.167 237.5,177.5C 229.5,177.5 221.5,177.5 213.5,177.5C 213.754,174.986 214.587,172.652 216,170.5C 221,165.5 226,160.5 231,155.5C 231.483,154.552 231.649,153.552 231.5,152.5C 232.552,152.649 233.552,152.483 234.5,152C 237.747,147.073 241.414,142.573 245.5,138.5 Z"/></g>
<g><path style="opacity:1" fill="#7c7e80" d="M 95.5,149.5 C 93.2418,153.016 91.2418,156.682 89.5,160.5C 88.5,160.5 87.5,160.5 86.5,160.5C 87.0102,163.388 86.3435,165.721 84.5,167.5C 84.4207,164.729 84.9207,162.063 86,159.5C 88.1732,157.302 90.1732,154.969 92,152.5C 92.4828,151.552 92.6495,150.552 92.5,149.5C 93.5,149.5 94.5,149.5 95.5,149.5 Z"/></g>
<g><path style="opacity:1" fill="#cacbcc" d="M 89.5,160.5 C 89.5,161.833 89.5,163.167 89.5,164.5C 102.817,166.295 116.15,168.128 129.5,170C 114.837,170.5 100.17,170.667 85.5,170.5C 84.5756,180.461 84.2423,190.461 84.5,200.5C 83.0689,200.119 82.2355,199.119 82,197.5C 81.5003,190.174 81.3337,182.841 81.5,175.5C 81.4104,172.359 82.4104,169.692 84.5,167.5C 86.3435,165.721 87.0102,163.388 86.5,160.5C 87.5,160.5 88.5,160.5 89.5,160.5 Z"/></g>
<g><path style="opacity:0.39" fill="#5f197a" d="M 445.5,169.5 C 448.304,168.362 451.304,168.195 454.5,169C 455.942,169.377 456.942,170.21 457.5,171.5C 456.833,171.5 456.167,171.5 455.5,171.5C 452.448,169.822 449.115,169.155 445.5,169.5 Z"/></g>
<g><path style="opacity:0.971" fill="#59280c" d="M 433.5,169.5 C 437.5,169.5 441.5,169.5 445.5,169.5C 445.167,170.167 444.833,170.833 444.5,171.5C 444.167,171.5 443.833,171.5 443.5,171.5C 439.018,170.674 434.351,170.174 429.5,170C 430.793,169.51 432.127,169.343 433.5,169.5 Z"/></g>
<g><path style="opacity:1" fill="#dadbdc" d="M 201.5,167.5 C 201.833,170.5 200.5,171.833 197.5,171.5C 197.823,177.69 197.49,183.69 196.5,189.5C 196.5,184.833 196.5,180.167 196.5,175.5C 179.016,175.159 161.683,173.493 144.5,170.5C 162.47,170.454 180.47,170.287 198.5,170C 199.691,169.302 200.691,168.469 201.5,167.5 Z"/></g>
<g><path style="opacity:1" fill="#e70001" d="M 458.5,229.5 C 456.96,231.922 455.96,234.589 455.5,237.5C 453.224,237.756 452.057,239.09 452,241.5C 449.167,244.333 446.333,247.167 443.5,250C 439.866,251.966 436.533,254.132 433.5,256.5C 432.5,256.5 431.5,256.5 430.5,256.5C 422.619,258.353 414.619,259.353 406.5,259.5C 407.696,253.882 408.696,248.216 409.5,242.5C 412.075,239.8 411.742,238.467 408.5,238.5C 407.551,235.128 407.551,231.795 408.5,228.5C 420.346,212.484 432.012,196.317 443.5,180C 444.167,177.054 444.501,174.221 444.5,171.5C 447.272,170.629 449.938,170.629 452.5,171.5C 454.34,176.105 455.34,180.938 455.5,186C 455.141,190.383 454.475,194.716 453.5,199C 454.689,203.211 456.022,207.378 457.5,211.5C 458.496,217.463 458.829,223.463 458.5,229.5 Z"/></g>
<g><path style="opacity:0.939" fill="#280d34" d="M 78.5,158.5 C 76.5383,165.872 75.2049,173.372 74.5,181C 75.2365,187.508 75.9032,194.008 76.5,200.5C 75.8333,200.5 75.1667,200.5 74.5,200.5C 73.5166,196.702 73.1832,192.702 73.5,188.5C 73.5,182.167 73.5,175.833 73.5,169.5C 74.3727,165.381 76.0394,161.714 78.5,158.5 Z"/></g>
<g><path style="opacity:0.868" fill="#54166c" d="M 73.5,169.5 C 73.5,175.833 73.5,182.167 73.5,188.5C 72.1818,185.742 71.5152,182.576 71.5,179C 71.5152,175.424 72.1818,172.258 73.5,169.5 Z"/></g>
<g><path style="opacity:1" fill="#a80101" d="M 443.5,171.5 C 443.833,171.5 444.167,171.5 444.5,171.5C 444.501,174.221 444.167,177.054 443.5,180C 432.012,196.317 420.346,212.484 408.5,228.5C 407.551,231.795 407.551,235.128 408.5,238.5C 411.742,238.467 412.075,239.8 409.5,242.5C 408.696,248.216 407.696,253.882 406.5,259.5C 414.619,259.353 422.619,258.353 430.5,256.5C 427.086,258.366 423.42,259.866 419.5,261C 420.949,262.102 422.282,263.269 423.5,264.5C 426.219,267.193 429.553,268.86 433.5,269.5C 433.47,270.497 433.97,271.164 435,271.5C 440.982,273.576 447.149,274.909 453.5,275.5C 453.376,276.107 453.043,276.44 452.5,276.5C 437.71,276.816 425.71,271.483 416.5,260.5C 412.203,261.463 407.87,261.463 403.5,260.5C 404.204,257.021 405.37,253.688 407,250.5C 407.667,245.5 407.667,240.5 407,235.5C 404.544,233.679 401.711,233.012 398.5,233.5C 399.048,230.916 400.715,229.916 403.5,230.5C 404.384,226.588 405.884,222.922 408,219.5C 410,216.833 412,214.167 414,211.5C 416.992,205.883 419.992,200.216 423,194.5C 427.022,189.796 430.688,184.796 434,179.5C 436.741,176.253 439.908,173.586 443.5,171.5 Z"/></g>
<g><path style="opacity:0.702" fill="#260c31" d="M 455.5,171.5 C 456.167,171.5 456.833,171.5 457.5,171.5C 458.374,182.865 458.707,194.198 458.5,205.5C 456.544,203.968 455.544,201.801 455.5,199C 456.785,189.83 456.785,180.663 455.5,171.5 Z"/></g>
<g><path style="opacity:1" fill="#0c5583" d="M 418.5,174.5 C 419.434,175.568 419.768,176.901 419.5,178.5C 420.5,178.5 421.5,178.5 422.5,178.5C 422.663,180.857 422.497,183.19 422,185.5C 418.899,189.012 416.066,192.679 413.5,196.5C 412.07,196.421 410.736,196.754 409.5,197.5C 398.761,207.904 388.427,218.571 378.5,229.5C 375.194,232.14 372.194,235.14 369.5,238.5C 363.826,239.838 358.493,241.838 353.5,244.5C 352.624,244.631 351.957,244.298 351.5,243.5C 352.727,242.41 353.56,241.076 354,239.5C 356.77,238.385 359.27,236.885 361.5,235C 367.966,227.739 374.966,220.905 382.5,214.5C 383.427,212.887 384.261,211.221 385,209.5C 392.822,202.903 399.988,195.57 406.5,187.5C 407.766,183.179 410.266,179.846 414,177.5C 414.483,176.552 414.649,175.552 414.5,174.5C 415.833,174.5 417.167,174.5 418.5,174.5 Z"/></g>
<g><path style="opacity:1" fill="#9c0907" d="M 445.5,169.5 C 449.115,169.155 452.448,169.822 455.5,171.5C 456.785,180.663 456.785,189.83 455.5,199C 455.544,201.801 456.544,203.968 458.5,205.5C 459.229,209.981 459.896,214.481 460.5,219C 460.299,222.723 459.633,226.223 458.5,229.5C 458.829,223.463 458.496,217.463 457.5,211.5C 456.022,207.378 454.689,203.211 453.5,199C 454.475,194.716 455.141,190.383 455.5,186C 455.34,180.938 454.34,176.105 452.5,171.5C 449.938,170.629 447.272,170.629 444.5,171.5C 444.833,170.833 445.167,170.167 445.5,169.5 Z"/></g>
<g><path style="opacity:1" fill="#b4b6b7" d="M 224.5,143.5 C 226.028,144.802 227.028,146.469 227.5,148.5C 229.228,146.774 231.228,145.441 233.5,144.5C 232.793,146.134 231.627,147.468 230,148.5C 229.517,149.448 229.351,150.448 229.5,151.5C 227.508,151.672 225.842,151.005 224.5,149.5C 216.656,156.511 209.322,164.011 202.5,172C 200.125,186.418 198.458,200.918 197.5,215.5C 201.5,215.5 205.5,215.5 209.5,215.5C 208.865,205.634 209.865,195.967 212.5,186.5C 212.833,188.333 213.167,190.167 213.5,192C 212.601,200.153 211.935,208.32 211.5,216.5C 200.315,216.379 189.315,215.713 178.5,214.5C 183.347,214.768 188.014,214.102 192.5,212.5C 193.506,204.751 194.84,197.084 196.5,189.5C 197.49,183.69 197.823,177.69 197.5,171.5C 200.5,171.833 201.833,170.5 201.5,167.5C 203.661,165.87 205.828,164.203 208,162.5C 208.483,161.552 208.649,160.552 208.5,159.5C 209.552,159.649 210.552,159.483 211.5,159C 212.305,157.028 213.639,155.528 215.5,154.5C 216.309,152.929 216.643,151.262 216.5,149.5C 220.239,148.961 222.906,146.961 224.5,143.5 Z"/></g>
<g><path style="opacity:0.929" fill="#60197a" d="M 74.5,200.5 C 75.1667,200.5 75.8333,200.5 76.5,200.5C 77.5691,203.408 77.7358,206.408 77,209.5C 74.9091,211.428 73.0757,213.428 71.5,215.5C 72.4989,211.996 74.1655,208.829 76.5,206C 75.6216,204.2 74.955,202.367 74.5,200.5 Z"/></g>
<g><path style="opacity:0.118" fill="#6f1c8f" d="M 39.5,201.5 C 36.0744,210.673 32.4077,219.673 28.5,228.5C 27.6431,229.425 26.6431,230.092 25.5,230.5C 29.0374,222.255 32.5374,213.921 36,205.5C 36.4983,203.456 37.665,202.122 39.5,201.5 Z"/></g>
<g><path style="opacity:1" fill="#a0a3a4" d="M 100.5,212.5 C 123.192,211.844 145.525,212.511 167.5,214.5C 145.5,214.5 123.5,214.5 101.5,214.5C 100.662,214.158 100.328,213.492 100.5,212.5 Z"/></g>
<g><path style="opacity:1" fill="#596166" d="M 101.5,214.5 C 123.5,214.5 145.5,214.5 167.5,214.5C 171.167,214.5 174.833,214.5 178.5,214.5C 189.315,215.713 200.315,216.379 211.5,216.5C 212.949,218.164 214.949,218.998 217.5,219C 240.931,219.679 264.265,221.513 287.5,224.5C 287.5,225.167 287.5,225.833 287.5,226.5C 283.818,226.335 280.152,226.501 276.5,227C 291.372,229.716 306.372,231.216 321.5,231.5C 322.978,241.228 322.645,250.895 320.5,260.5C 309.282,262.663 297.949,263.663 286.5,263.5C 277.85,260.908 269.184,260.908 260.5,263.5C 258.508,262.496 256.341,261.83 254,261.5C 246.512,260.834 239.012,260.334 231.5,260C 231.043,259.586 230.709,259.086 230.5,258.5C 226.878,257.675 223.211,257.175 219.5,257C 189.825,256.245 160.158,255.245 130.5,254C 115.242,251.674 99.9084,250.007 84.5,249C 83.3759,248.161 82.7092,246.994 82.5,245.5C 80.7817,235.463 81.9484,225.796 86,216.5C 87.0086,215.342 88.3419,214.675 90,214.5C 93.9992,215.583 97.8325,215.583 101.5,214.5 Z"/></g>
<g><path style="opacity:1" fill="#34342f" d="M 413.5,196.5 C 403.702,206.798 393.702,216.965 383.5,227C 382.1,228.438 380.433,229.271 378.5,229.5C 388.427,218.571 398.761,207.904 409.5,197.5C 410.736,196.754 412.07,196.421 413.5,196.5 Z"/></g>
<g><path style="opacity:0.637" fill="#3c104c" d="M 461.5,214.5 C 462.777,215.694 463.444,217.36 463.5,219.5C 463.217,223.196 462.717,226.863 462,230.5C 461.617,231.056 461.117,231.389 460.5,231.5C 461.032,225.848 461.365,220.181 461.5,214.5 Z"/></g>
<g><path style="opacity:0.761" fill="#230e24" d="M 458.5,205.5 C 460.851,207.841 461.851,210.841 461.5,214.5C 461.365,220.181 461.032,225.848 460.5,231.5C 460.657,232.873 460.49,234.207 460,235.5C 459.124,237.635 457.624,238.969 455.5,239.5C 455.5,238.833 455.5,238.167 455.5,237.5C 455.96,234.589 456.96,231.922 458.5,229.5C 459.633,226.223 460.299,222.723 460.5,219C 459.896,214.481 459.229,209.981 458.5,205.5 Z"/></g>
<g><path style="opacity:0.843" fill="#651a81" d="M 71.5,215.5 C 69.2867,229.207 69.2867,242.874 71.5,256.5C 70.71,257.609 70.21,258.942 70,260.5C 68.6412,261.365 67.4745,262.365 66.5,263.5C 66.7219,259.723 68.0553,256.389 70.5,253.5C 70.0814,252.328 69.4147,251.328 68.5,250.5C 68.1667,246 67.8333,241.5 67.5,237C 67.2454,229.388 68.5787,222.221 71.5,215.5 Z"/></g>
<g><path style="opacity:1" fill="#9d0302" d="M 369.5,238.5 C 377.167,238.5 384.833,238.5 392.5,238.5C 392.201,240.455 391.201,241.789 389.5,242.5C 388.548,241.548 387.548,240.548 386.5,239.5C 385.808,240.025 385.308,240.692 385,241.5C 383.82,240.316 382.32,239.649 380.5,239.5C 374.076,241.001 367.576,242.001 361,242.5C 358.626,243.865 356.126,244.865 353.5,245.5C 353.5,245.167 353.5,244.833 353.5,244.5C 358.493,241.838 363.826,239.838 369.5,238.5 Z"/></g>
<g><path style="opacity:1" fill="#a00000" d="M 389.5,242.5 C 387.444,250.149 387.278,257.816 389,265.5C 391.106,267.291 393.606,267.958 396.5,267.5C 395.737,268.268 394.737,268.768 393.5,269C 392.915,270.302 392.249,271.469 391.5,272.5C 388.803,268.69 386.47,264.523 384.5,260C 385.357,255.476 386.357,250.976 387.5,246.5C 374.799,249.873 362.133,253.206 349.5,256.5C 346.951,253.371 347.618,250.871 351.5,249C 363.589,243.754 376.255,241.588 389.5,242.5 Z"/></g>
<g><path style="opacity:0.912" fill="#682d03" d="M 455.5,240.5 C 455.5,251.5 455.5,262.5 455.5,273.5C 454.172,268.712 453.505,263.546 453.5,258C 453.667,252.833 453.833,247.667 454,242.5C 454.278,241.584 454.778,240.918 455.5,240.5 Z"/></g>
<g><path style="opacity:1" fill="#e70001" d="M 389.5,242.5 C 376.255,241.588 363.589,243.754 351.5,249C 347.618,250.871 346.951,253.371 349.5,256.5C 362.133,253.206 374.799,249.873 387.5,246.5C 386.357,250.976 385.357,255.476 384.5,260C 386.47,264.523 388.803,268.69 391.5,272.5C 389.299,274.504 387.299,276.837 385.5,279.5C 382.446,284.358 379.78,289.358 377.5,294.5C 375.165,297.531 373.165,300.865 371.5,304.5C 369.342,307.758 366.675,310.424 363.5,312.5C 362.078,312.709 360.745,313.209 359.5,314C 357.797,316.172 356.13,318.339 354.5,320.5C 351.324,320.948 348.324,321.948 345.5,323.5C 343.307,323.136 341.473,322.136 340,320.5C 339.501,315.177 339.334,309.844 339.5,304.5C 340.164,301.854 340.498,299.021 340.5,296C 339.544,286.517 338.877,277.017 338.5,267.5C 338.255,264.135 338.922,260.968 340.5,258C 342.974,253.039 346.308,248.872 350.5,245.5C 351.5,245.5 352.5,245.5 353.5,245.5C 356.126,244.865 358.626,243.865 361,242.5C 367.576,242.001 374.076,241.001 380.5,239.5C 382.32,239.649 383.82,240.316 385,241.5C 385.308,240.692 385.808,240.025 386.5,239.5C 387.548,240.548 388.548,241.548 389.5,242.5 Z"/></g>
<g><path style="opacity:0.031" fill="#230a2e" d="M 20.5,248.5 C 20.8432,250.483 20.1765,251.817 18.5,252.5C 18.1568,250.517 18.8235,249.183 20.5,248.5 Z"/></g>
<g><path style="opacity:0.588" fill="#9426bd" d="M 22.5,241.5 C 22.6243,252.882 20.791,263.882 17,274.5C 14.8989,287.176 12.7323,299.843 10.5,312.5C 11.2812,323.547 11.2812,334.547 10.5,345.5C 10.2914,348.454 10.9581,351.121 12.5,353.5C 13.3315,361.145 13.8315,368.812 14,376.5C 14.5382,379.345 15.5382,382.012 17,384.5C 18.0113,385.337 19.1779,385.67 20.5,385.5C 20.5861,387.677 21.2528,389.677 22.5,391.5C 21.4683,393.617 21.4683,395.783 22.5,398C 24.447,403.602 26.447,409.102 28.5,414.5C 29.5,414.5 30.5,414.5 31.5,414.5C 31.6159,417.86 31.9492,421.193 32.5,424.5C 23.7278,409.771 16.7278,393.937 11.5,377C 10.4622,370.532 9.79554,364.032 9.5,357.5C 10.12,351.074 9.45334,345.074 7.5,339.5C 6.27825,328.993 6.27825,318.327 7.5,307.5C 9.52334,298.102 10.8567,288.602 11.5,279C 13.1422,269.928 15.4756,261.095 18.5,252.5C 20.1765,251.817 20.8432,250.483 20.5,248.5C 20.4095,245.848 21.0762,243.515 22.5,241.5 Z"/></g>
<g><path style="opacity:0.997" fill="#010000" d="M 455.5,237.5 C 455.5,238.167 455.5,238.833 455.5,239.5C 455.5,239.833 455.5,240.167 455.5,240.5C 454.778,240.918 454.278,241.584 454,242.5C 453.833,247.667 453.667,252.833 453.5,258C 453.505,263.546 454.172,268.712 455.5,273.5C 456.833,275.167 456.833,276.833 455.5,278.5C 454.778,278.918 454.278,279.584 454,280.5C 453.833,289.5 453.667,298.5 453.5,307.5C 453.502,316.859 454.168,325.859 455.5,334.5C 456.242,341.042 454.909,347.042 451.5,352.5C 415.736,388.553 379.736,424.386 343.5,460C 315.835,460.5 288.169,460.667 260.5,460.5C 235.5,460.5 210.5,460.5 185.5,460.5C 142.167,460.5 98.8333,460.5 55.5,460.5C 53.4793,458.968 51.9793,456.968 51,454.5C 50.3333,397.167 50.3333,339.833 51,282.5C 55.9479,276.242 61.1146,270.242 66.5,264.5C 66.5,264.167 66.5,263.833 66.5,263.5C 67.4745,262.365 68.6412,261.365 70,260.5C 70.21,258.942 70.71,257.609 71.5,256.5C 73.143,256.52 74.4763,255.853 75.5,254.5C 76.4519,256.045 76.7852,257.712 76.5,259.5C 76.5,264.833 76.5,270.167 76.5,275.5C 82.1667,275.5 87.8333,275.5 93.5,275.5C 92.2763,282.824 92.2763,290.158 93.5,297.5C 86.1667,297.5 78.8333,297.5 71.5,297.5C 70.5012,344.997 70.1679,392.664 70.5,440.5C 156.335,440.833 242.002,440.499 327.5,439.5C 327.5,392.167 327.5,344.833 327.5,297.5C 318.833,297.5 310.167,297.5 301.5,297.5C 300.167,297.5 298.833,297.5 297.5,297.5C 298.724,290.158 298.724,282.824 297.5,275.5C 308.838,275.667 320.172,275.5 331.5,275C 333.047,273.613 334.713,272.447 336.5,271.5C 338.529,282.381 339.529,293.381 339.5,304.5C 338.268,311.024 338.268,317.691 339.5,324.5C 342.127,325.092 344.794,325.425 347.5,325.5C 347.5,358.5 347.5,391.5 347.5,424.5C 349.179,424.715 350.179,424.048 350.5,422.5C 365.805,405.831 381.972,390.164 399,375.5C 409.415,362.705 420.748,350.705 433,339.5C 433.5,330.506 433.666,321.506 433.5,312.5C 433.5,311.167 433.5,309.833 433.5,308.5C 436.397,302.771 440.231,297.771 445,293.5C 448.374,288.209 450.874,282.543 452.5,276.5C 453.043,276.44 453.376,276.107 453.5,275.5C 447.149,274.909 440.982,273.576 435,271.5C 433.97,271.164 433.47,270.497 433.5,269.5C 433.5,266.167 433.5,262.833 433.5,259.5C 433.5,258.5 433.5,257.5 433.5,256.5C 436.533,254.132 439.866,251.966 443.5,250C 446.333,247.167 449.167,244.333 452,241.5C 452.057,239.09 453.224,237.756 455.5,237.5 Z"/></g>
<g><path style="opacity:1" fill="#204e69" d="M 81.5,253.5 C 106.306,255.099 130.973,256.433 155.5,257.5C 130.491,257.638 105.491,257.304 80.5,256.5C 80.5569,255.391 80.8902,254.391 81.5,253.5 Z"/></g>
<g><path style="opacity:1" fill="#49545b" d="M 81.5,175.5 C 81.3337,182.841 81.5003,190.174 82,197.5C 82.2355,199.119 83.0689,200.119 84.5,200.5C 84.1459,203.421 85.1459,205.754 87.5,207.5C 90.3586,208.179 92.8586,209.512 95,211.5C 96.7659,212.233 98.5992,212.567 100.5,212.5C 100.328,213.492 100.662,214.158 101.5,214.5C 97.8325,215.583 93.9992,215.583 90,214.5C 88.3419,214.675 87.0086,215.342 86,216.5C 81.9484,225.796 80.7817,235.463 82.5,245.5C 82.7092,246.994 83.3759,248.161 84.5,249C 99.9084,250.007 115.242,251.674 130.5,254C 160.158,255.245 189.825,256.245 219.5,257C 223.211,257.175 226.878,257.675 230.5,258.5C 230.709,259.086 231.043,259.586 231.5,260C 239.012,260.334 246.512,260.834 254,261.5C 256.341,261.83 258.508,262.496 260.5,263.5C 258.095,264.768 255.428,265.435 252.5,265.5C 244.181,264.878 235.848,264.378 227.5,264C 223.89,262.797 220.224,261.797 216.5,261C 196.166,259.703 175.833,258.536 155.5,257.5C 130.973,256.433 106.306,255.099 81.5,253.5C 81.8333,250.5 80.5,249.167 77.5,249.5C 77.3335,239.828 77.5002,230.161 78,220.5C 78.2022,218.744 78.7022,217.078 79.5,215.5C 81.5841,213.424 83.2508,211.09 84.5,208.5C 82.7912,205.743 81.6245,202.743 81,199.5C 80.1772,191.323 80.3439,183.323 81.5,175.5 Z"/></g>
<g><path style="opacity:1" fill="#513f31" d="M 430.5,256.5 C 431.5,256.5 432.5,256.5 433.5,256.5C 433.5,257.5 433.5,258.5 433.5,259.5C 430.316,260.643 426.983,261.309 423.5,261.5C 423.5,262.5 423.5,263.5 423.5,264.5C 422.282,263.269 420.949,262.102 419.5,261C 423.42,259.866 427.086,258.366 430.5,256.5 Z"/></g>
<g><path style="opacity:1" fill="#e60001" d="M 398.5,233.5 C 401.711,233.012 404.544,233.679 407,235.5C 407.667,240.5 407.667,245.5 407,250.5C 405.37,253.688 404.204,257.021 403.5,260.5C 407.87,261.463 412.203,261.463 416.5,260.5C 425.71,271.483 437.71,276.816 452.5,276.5C 450.874,282.543 448.374,288.209 445,293.5C 440.231,297.771 436.397,302.771 433.5,308.5C 432.778,309.551 431.778,310.218 430.5,310.5C 429.739,311.391 428.739,312.058 427.5,312.5C 423.003,310.275 419.003,307.608 415.5,304.5C 410.657,296.406 406.323,288.073 402.5,279.5C 401.614,275.334 400.614,271.167 399.5,267C 400.217,265.469 401.217,264.136 402.5,263C 402.167,262.5 401.833,262 401.5,261.5C 399.758,263.563 398.091,265.563 396.5,267.5C 393.606,267.958 391.106,267.291 389,265.5C 387.278,257.816 387.444,250.149 389.5,242.5C 391.201,241.789 392.201,240.455 392.5,238.5C 393.609,235.721 395.609,234.054 398.5,233.5 Z"/></g>
<g><path style="opacity:1" fill="#9b7b5d" d="M 433.5,259.5 C 433.5,262.833 433.5,266.167 433.5,269.5C 429.553,268.86 426.219,267.193 423.5,264.5C 423.5,263.5 423.5,262.5 423.5,261.5C 426.983,261.309 430.316,260.643 433.5,259.5 Z"/></g>
<g><path style="opacity:1" fill="#085d8f" d="M 80.5,256.5 C 105.491,257.304 130.491,257.638 155.5,257.5C 175.833,258.536 196.166,259.703 216.5,261C 220.224,261.797 223.89,262.797 227.5,264C 235.848,264.378 244.181,264.878 252.5,265.5C 252.53,266.497 252.03,267.164 251,267.5C 244.998,270.586 238.831,273.252 232.5,275.5C 225.51,275.001 218.51,274.668 211.5,274.5C 210.076,272.285 207.909,271.285 205,271.5C 202.374,271.05 200.874,272.05 200.5,274.5C 185.833,274.5 171.167,274.5 156.5,274.5C 150.198,271.022 143.531,268.022 136.5,265.5C 130.354,263.259 124.021,261.926 117.5,261.5C 109.84,262.081 103.007,264.748 97,269.5C 96.647,272.152 95.4803,274.152 93.5,275.5C 87.8333,275.5 82.1667,275.5 76.5,275.5C 76.5,270.167 76.5,264.833 76.5,259.5C 77.2362,257.771 78.5695,256.771 80.5,256.5 Z"/></g>
<g><path style="opacity:1" fill="#0b5a8a" d="M 350.5,245.5 C 346.308,248.872 342.974,253.039 340.5,258C 338.922,260.968 338.255,264.135 338.5,267.5C 336.824,268.183 336.157,269.517 336.5,271.5C 334.713,272.447 333.047,273.613 331.5,275C 320.172,275.5 308.838,275.667 297.5,275.5C 295.654,273.295 293.987,270.961 292.5,268.5C 304.135,267.876 315.802,266.376 327.5,264C 335.074,259.097 341.741,253.097 347.5,246C 348.448,245.517 349.448,245.351 350.5,245.5 Z"/></g>
<g><path style="opacity:1" fill="#e00101" d="M 396.5,267.5 C 398.388,269.988 399.055,272.988 398.5,276.5C 395.977,303.37 389.31,329.037 378.5,353.5C 373.147,353.795 368.147,355.295 363.5,358C 359.514,358.499 355.514,358.666 351.5,358.5C 351.5,357.5 351.5,356.5 351.5,355.5C 360.922,340.16 368.588,323.827 374.5,306.5C 376.017,303.127 377.35,299.627 378.5,296C 378.43,295.235 378.097,294.735 377.5,294.5C 379.78,289.358 382.446,284.358 385.5,279.5C 387.299,276.837 389.299,274.504 391.5,272.5C 392.249,271.469 392.915,270.302 393.5,269C 394.737,268.768 395.737,268.268 396.5,267.5 Z"/></g>
<g><path style="opacity:1" fill="#970404" d="M 338.5,267.5 C 338.877,277.017 339.544,286.517 340.5,296C 340.498,299.021 340.164,301.854 339.5,304.5C 339.529,293.381 338.529,282.381 336.5,271.5C 336.157,269.517 336.824,268.183 338.5,267.5 Z"/></g>
<g><path style="opacity:1" fill="#9b0202" d="M 402.5,279.5 C 401.167,278.5 399.833,277.5 398.5,276.5C 399.055,272.988 398.388,269.988 396.5,267.5C 398.091,265.563 399.758,263.563 401.5,261.5C 401.833,262 402.167,262.5 402.5,263C 401.217,264.136 400.217,265.469 399.5,267C 400.614,271.167 401.614,275.334 402.5,279.5 Z"/></g>
<g><path style="opacity:0.742" fill="#652c00" d="M 455.5,278.5 C 455.5,284.167 455.5,289.833 455.5,295.5C 455.5,308.5 455.5,321.5 455.5,334.5C 454.168,325.859 453.502,316.859 453.5,307.5C 453.667,298.5 453.833,289.5 454,280.5C 454.278,279.584 454.778,278.918 455.5,278.5 Z"/></g>
<g><path style="opacity:0.992" fill="#b74f08" d="M 66.5,264.5 C 61.1146,270.242 55.9479,276.242 51,282.5C 50.3333,339.833 50.3333,397.167 51,454.5C 51.9793,456.968 53.4793,458.968 55.5,460.5C 52.3241,460.33 50.3241,458.663 49.5,455.5C 48.513,452.232 48.1796,448.898 48.5,445.5C 48.1667,390.496 48.5,335.496 49.5,280.5C 53.5858,274.909 58.2525,269.742 63.5,265C 64.448,264.517 65.448,264.351 66.5,264.5 Z"/></g>
<g><path style="opacity:1" fill="#b08c69" d="M 402.5,282.5 C 405.771,290.726 409.771,298.393 414.5,305.5C 415.5,305.5 416.5,305.5 417.5,305.5C 417.351,306.552 417.517,307.552 418,308.5C 419.627,309.532 420.793,310.866 421.5,312.5C 423.402,316.683 426.735,318.349 431.5,317.5C 431.402,315.447 432.069,313.78 433.5,312.5C 433.666,321.506 433.5,330.506 433,339.5C 420.748,350.705 409.415,362.705 399,375.5C 381.972,390.164 365.805,405.831 350.5,422.5C 348.507,390.851 347.841,358.851 348.5,326.5C 352.589,325.919 356.256,324.585 359.5,322.5C 359.351,321.448 359.517,320.448 360,319.5C 363.104,316.275 366.437,313.275 370,310.5C 370.112,307.553 371.612,306.22 374.5,306.5C 368.588,323.827 360.922,340.16 351.5,355.5C 350.596,356.209 350.263,357.209 350.5,358.5C 349.218,359.708 349.218,361.042 350.5,362.5C 357.485,364.213 364.152,363.38 370.5,360C 373.482,359.502 376.482,359.335 379.5,359.5C 388.29,337.366 394.79,314.366 399,290.5C 399.749,287.497 400.915,284.831 402.5,282.5 Z"/></g>
<g><path style="opacity:1" fill="#9f0202" d="M 156.5,274.5 C 157.671,275.345 159.005,276.011 160.5,276.5C 169.37,281.674 178.036,287.341 186.5,293.5C 192.406,290.998 198.406,290.998 204.5,293.5C 209.663,291.506 214.163,288.506 218,284.5C 221.874,282.04 226.04,280.04 230.5,278.5C 231.401,277.71 232.068,276.71 232.5,275.5C 238.831,273.252 244.998,270.586 251,267.5C 252.03,267.164 252.53,266.497 252.5,265.5C 255.428,265.435 258.095,264.768 260.5,263.5C 269.184,260.908 277.85,260.908 286.5,263.5C 288.596,265.012 290.596,266.678 292.5,268.5C 293.987,270.961 295.654,273.295 297.5,275.5C 298.724,282.824 298.724,290.158 297.5,297.5C 295.653,301.216 294.653,305.216 294.5,309.5C 295.698,314.903 297.198,320.236 299,325.5C 299.884,332.582 299.551,339.582 298,346.5C 295.529,349.067 292.862,351.4 290,353.5C 279.465,356.925 268.632,358.258 257.5,357.5C 257.38,356.414 256.713,355.747 255.5,355.5C 252.885,354.731 250.219,354.397 247.5,354.5C 244.46,352.654 241.127,351.321 237.5,350.5C 235.427,349.862 233.427,348.862 231.5,347.5C 231.291,351.505 233.291,354.172 237.5,355.5C 237.561,359.071 239.227,361.404 242.5,362.5C 245.202,365.518 247.702,368.851 250,372.5C 251.774,374.94 254.108,376.606 257,377.5C 257.483,378.448 257.649,379.448 257.5,380.5C 258.552,380.351 259.552,380.517 260.5,381C 263.566,383.749 266.566,386.582 269.5,389.5C 273.899,392.318 278.566,394.652 283.5,396.5C 284.298,396.957 284.631,397.624 284.5,398.5C 281.498,403.165 277.498,406.831 272.5,409.5C 264.338,412.958 256.005,415.958 247.5,418.5C 244.338,420.055 241.672,422.055 239.5,424.5C 236.979,422.299 234.479,419.966 232,417.5C 227.55,410.386 222.717,403.552 217.5,397C 215.17,391.836 212.503,386.836 209.5,382C 205.051,372.612 201.051,363.112 197.5,353.5C 197.76,349.652 197.094,345.985 195.5,342.5C 194.546,347.006 193.546,351.506 192.5,356C 188.055,367.615 183.055,378.948 177.5,390C 169.74,401.977 161.406,413.477 152.5,424.5C 149.533,422.503 146.533,420.503 143.5,418.5C 134.871,415.884 126.371,412.884 118,409.5C 113.178,406.721 109.345,402.888 106.5,398C 111.494,395.288 116.494,392.454 121.5,389.5C 122.167,388.5 122.833,387.5 123.5,386.5C 127.73,383.231 132.063,380.065 136.5,377C 142.058,371.778 147.225,366.278 152,360.5C 152.713,358.147 153.879,356.147 155.5,354.5C 156.761,352.71 158.261,351.043 160,349.5C 160.591,348.517 160.257,347.85 159,347.5C 157.829,348.34 156.662,349.173 155.5,350C 140.976,355.341 125.976,357.841 110.5,357.5C 110.38,356.414 109.713,355.747 108.5,355.5C 93.9228,352.365 88.4228,343.365 92,328.5C 93.984,322.36 95.484,316.027 96.5,309.5C 96.4678,305.007 95.4678,301.007 93.5,297.5C 92.2763,290.158 92.2763,282.824 93.5,275.5C 95.4803,274.152 96.647,272.152 97,269.5C 103.007,264.748 109.84,262.081 117.5,261.5C 124.021,261.926 130.354,263.259 136.5,265.5C 143.531,268.022 150.198,271.022 156.5,274.5 Z"/></g>
<g><path style="opacity:1" fill="#e80001" d="M 190.5,293.5 C 209.395,293.924 216.395,303.424 211.5,322C 209.916,323.835 208.583,325.835 207.5,328C 184.117,335.617 174.784,327.283 179.5,303C 182.127,298.637 185.793,295.47 190.5,293.5 Z"/></g>
<g><path style="opacity:1" fill="#020000" d="M 160.5,276.5 C 184.191,275.843 207.524,276.51 230.5,278.5C 226.04,280.04 221.874,282.04 218,284.5C 214.163,288.506 209.663,291.506 204.5,293.5C 198.406,290.998 192.406,290.998 186.5,293.5C 178.036,287.341 169.37,281.674 160.5,276.5 Z"/></g>
<g><path style="opacity:1" fill="#342b20" d="M 156.5,274.5 C 171.167,274.5 185.833,274.5 200.5,274.5C 204.167,274.5 207.833,274.5 211.5,274.5C 218.51,274.668 225.51,275.001 232.5,275.5C 232.068,276.71 231.401,277.71 230.5,278.5C 207.524,276.51 184.191,275.843 160.5,276.5C 159.005,276.011 157.671,275.345 156.5,274.5 Z"/></g>
<g><path style="opacity:1" fill="#b0b5b6" d="M 211.5,274.5 C 207.833,274.5 204.167,274.5 200.5,274.5C 200.874,272.05 202.374,271.05 205,271.5C 207.909,271.285 210.076,272.285 211.5,274.5 Z"/></g>
<g><path style="opacity:1" fill="#e80001" d="M 107.5,264.5 C 114.175,264.334 120.842,264.5 127.5,265C 147.5,271.794 165.833,281.461 182.5,294C 182,294.167 181.5,294.333 181,294.5C 173.311,289.825 165.645,285.158 158,280.5C 150.785,277.262 143.618,273.929 136.5,270.5C 128.748,267.667 120.748,266 112.5,265.5C 112.543,268.088 113.543,270.254 115.5,272C 135.83,282.165 156.83,290.665 178.5,297.5C 176.717,302.307 175.717,307.307 175.5,312.5C 172.249,310.81 168.749,309.81 165,309.5C 161.241,309.093 159.741,310.76 160.5,314.5C 162.743,313.688 165.076,313.021 167.5,312.5C 170.176,312.837 172.843,313.17 175.5,313.5C 175.766,318.374 176.933,323.041 179,327.5C 181.556,328.219 182.723,329.886 182.5,332.5C 168.715,341.136 153.882,348.136 138,353.5C 128.185,354.576 118.352,354.743 108.5,354C 104.898,352.196 101.231,350.696 97.5,349.5C 97.0093,346.99 96.0093,344.656 94.5,342.5C 94.1667,339.667 93.8333,336.833 93.5,334C 94.9419,325.397 96.9419,316.897 99.5,308.5C 96.2256,299.075 95.0589,289.409 96,279.5C 96.5526,275.84 97.886,272.506 100,269.5C 102.897,268.289 105.397,266.622 107.5,264.5 Z"/></g>
<g><path style="opacity:1" fill="#e90001" d="M 264.5,264.5 C 271.379,264.222 278.212,264.555 285,265.5C 294.673,272.728 298.006,282.395 295,294.5C 294.087,299.266 292.92,303.932 291.5,308.5C 292.583,314.003 294.25,319.337 296.5,324.5C 300.51,346.158 291.51,356.158 269.5,354.5C 256.475,354.653 244.142,351.819 232.5,346C 227.792,343.25 222.959,340.75 218,338.5C 214.06,336.392 210.56,333.725 207.5,330.5C 212.252,326.215 215.252,320.881 216.5,314.5C 221.215,311.916 225.882,311.916 230.5,314.5C 230.844,310.866 229.177,309.2 225.5,309.5C 222.17,309.628 219.17,310.628 216.5,312.5C 215.31,307.405 213.977,302.405 212.5,297.5C 232.418,290.766 252.085,283.266 271.5,275C 275.655,273.189 277.655,270.023 277.5,265.5C 271.047,265.926 264.714,267.093 258.5,269C 244.2,275.702 230.2,282.869 216.5,290.5C 215.494,290.062 215.494,289.396 216.5,288.5C 231.454,278.405 247.454,270.405 264.5,264.5 Z"/></g>
<g><path style="opacity:1" fill="#b38e6a" d="M 71.5,297.5 C 78.8333,297.5 86.1667,297.5 93.5,297.5C 95.4678,301.007 96.4678,305.007 96.5,309.5C 95.484,316.027 93.984,322.36 92,328.5C 88.4228,343.365 93.9228,352.365 108.5,355.5C 109.713,355.747 110.38,356.414 110.5,357.5C 111.718,358.161 113.051,358.828 114.5,359.5C 121.833,360.833 129.167,360.833 136.5,359.5C 142.748,357.466 149.081,355.8 155.5,354.5C 153.879,356.147 152.713,358.147 152,360.5C 147.225,366.278 142.058,371.778 136.5,377C 132.063,380.065 127.73,383.231 123.5,386.5C 122.833,387.5 122.167,388.5 121.5,389.5C 116.494,392.454 111.494,395.288 106.5,398C 109.345,402.888 113.178,406.721 118,409.5C 126.371,412.884 134.871,415.884 143.5,418.5C 146.533,420.503 149.533,422.503 152.5,424.5C 154.647,426.738 156.647,426.738 158.5,424.5C 176.908,404.076 189.908,380.409 197.5,353.5C 201.051,363.112 205.051,372.612 209.5,382C 212.503,386.836 215.17,391.836 217.5,397C 222.717,403.552 227.55,410.386 232,417.5C 234.479,419.966 236.979,422.299 239.5,424.5C 241.017,424.511 242.184,425.177 243,426.5C 252.798,421.107 263.131,416.774 274,413.5C 276.031,411.651 278.364,410.318 281,409.5C 284.116,407.196 286.616,404.363 288.5,401C 287.644,399.405 286.311,398.572 284.5,398.5C 284.631,397.624 284.298,396.957 283.5,396.5C 278.566,394.652 273.899,392.318 269.5,389.5C 266.566,386.582 263.566,383.749 260.5,381C 259.552,380.517 258.552,380.351 257.5,380.5C 257.649,379.448 257.483,378.448 257,377.5C 254.108,376.606 251.774,374.94 250,372.5C 247.702,368.851 245.202,365.518 242.5,362.5C 241.557,359.571 239.89,357.237 237.5,355.5C 236.748,353.9 235.748,352.4 234.5,351C 235.448,350.517 236.448,350.351 237.5,350.5C 241.127,351.321 244.46,352.654 247.5,354.5C 250.576,356.055 253.909,357.055 257.5,357.5C 271.207,362.112 284.541,360.946 297.5,354C 298.333,351.833 299.833,350.333 302,349.5C 303.551,342.582 303.884,335.582 303,328.5C 301.198,323.236 299.698,317.903 298.5,312.5C 298.894,307.664 299.894,302.998 301.5,298.5C 309.5,298.5 317.5,298.5 325.5,298.5C 325.5,345.5 325.5,392.5 325.5,439.5C 240.833,439.5 156.167,439.5 71.5,439.5C 71.5,392.167 71.5,344.833 71.5,297.5 Z"/></g>
<g><path style="opacity:1" fill="#4c392a" d="M 297.5,297.5 C 298.833,297.5 300.167,297.5 301.5,297.5C 301.5,297.833 301.5,298.167 301.5,298.5C 299.894,302.998 298.894,307.664 298.5,312.5C 299.698,317.903 301.198,323.236 303,328.5C 303.884,335.582 303.551,342.582 302,349.5C 299.833,350.333 298.333,351.833 297.5,354C 284.541,360.946 271.207,362.112 257.5,357.5C 268.632,358.258 279.465,356.925 290,353.5C 292.862,351.4 295.529,349.067 298,346.5C 299.551,339.582 299.884,332.582 299,325.5C 297.198,320.236 295.698,314.903 294.5,309.5C 294.653,305.216 295.653,301.216 297.5,297.5 Z"/></g>
<g><path style="opacity:1" fill="#997a5b" d="M 301.5,298.5 C 301.5,298.167 301.5,297.833 301.5,297.5C 310.167,297.5 318.833,297.5 327.5,297.5C 327.5,344.833 327.5,392.167 327.5,439.5C 326.833,439.5 326.167,439.5 325.5,439.5C 325.5,392.5 325.5,345.5 325.5,298.5C 317.5,298.5 309.5,298.5 301.5,298.5 Z"/></g>
<g><path style="opacity:1" fill="#9e0202" d="M 402.5,279.5 C 406.323,288.073 410.657,296.406 415.5,304.5C 419.003,307.608 423.003,310.275 427.5,312.5C 428.739,312.058 429.739,311.391 430.5,310.5C 430.915,312.948 429.915,314.281 427.5,314.5C 425.403,314.023 423.403,313.357 421.5,312.5C 420.793,310.866 419.627,309.532 418,308.5C 417.517,307.552 417.351,306.552 417.5,305.5C 416.5,305.5 415.5,305.5 414.5,305.5C 409.771,298.393 405.771,290.726 402.5,282.5C 402.5,281.5 402.5,280.5 402.5,279.5 Z"/></g>
<g><path style="opacity:1" fill="#9f0201" d="M 339.5,304.5 C 339.334,309.844 339.501,315.177 340,320.5C 341.473,322.136 343.307,323.136 345.5,323.5C 348.324,321.948 351.324,320.948 354.5,320.5C 354.196,321.15 353.863,321.817 353.5,322.5C 351.406,323.518 349.406,324.518 347.5,325.5C 344.794,325.425 342.127,325.092 339.5,324.5C 338.268,317.691 338.268,311.024 339.5,304.5 Z"/></g>
<g><path style="opacity:1" fill="#614637" d="M 433.5,308.5 C 433.5,309.833 433.5,311.167 433.5,312.5C 432.069,313.78 431.402,315.447 431.5,317.5C 426.735,318.349 423.402,316.683 421.5,312.5C 423.403,313.357 425.403,314.023 427.5,314.5C 429.915,314.281 430.915,312.948 430.5,310.5C 431.778,310.218 432.778,309.551 433.5,308.5 Z"/></g>
<g><path style="opacity:1" fill="#9c0a08" d="M 363.5,312.5 C 361.683,315.15 359.683,317.65 357.5,320C 356.552,320.483 355.552,320.649 354.5,320.5C 356.13,318.339 357.797,316.172 359.5,314C 360.745,313.209 362.078,312.709 363.5,312.5 Z"/></g>
<g><path style="opacity:1" fill="#e80001" d="M 185.5,332.5 C 188.167,333.167 190.833,333.833 193.5,334.5C 193.665,337.518 193.498,340.518 193,343.5C 185.533,372.996 171.7,398.663 151.5,420.5C 148.383,419.019 145.383,417.352 142.5,415.5C 133.534,413.067 124.868,409.9 116.5,406C 114.118,403.405 111.451,401.072 108.5,399C 117.391,395.009 125.391,389.843 132.5,383.5C 144.526,372.37 155.193,360.203 164.5,347C 171.696,342.246 178.696,337.413 185.5,332.5 Z"/></g>
<g><path style="opacity:1" fill="#e80001" d="M 200.5,332.5 C 202.288,332.215 203.955,332.548 205.5,333.5C 210.894,337.758 216.894,341.091 223.5,343.5C 230.524,351.456 237.024,359.789 243,368.5C 248.306,373.561 253.473,378.728 258.5,384C 265.784,389.904 273.784,394.904 282.5,399C 277.902,403.252 272.735,406.752 267,409.5C 256.822,412.5 246.989,416.167 237.5,420.5C 228.728,408.758 220.561,396.424 213,383.5C 210.172,375.176 206.672,367.176 202.5,359.5C 200.365,351.21 198.699,342.876 197.5,334.5C 199.179,334.715 200.179,334.048 200.5,332.5 Z"/></g>
<g><path style="opacity:0.094" fill="#721d93" d="M 7.5,339.5 C 9.45334,345.074 10.12,351.074 9.5,357.5C 7.69889,353.096 6.69889,348.263 6.5,343C 6.6483,341.744 6.98163,340.577 7.5,339.5 Z"/></g>
<g><path style="opacity:1" fill="#4b3a2b" d="M 197.5,353.5 C 189.908,380.409 176.908,404.076 158.5,424.5C 156.647,426.738 154.647,426.738 152.5,424.5C 161.406,413.477 169.74,401.977 177.5,390C 183.055,378.948 188.055,367.615 192.5,356C 193.546,351.506 194.546,347.006 195.5,342.5C 197.094,345.985 197.76,349.652 197.5,353.5 Z"/></g>
<g><path style="opacity:1" fill="#49382b" d="M 398.5,276.5 C 399.833,277.5 401.167,278.5 402.5,279.5C 402.5,280.5 402.5,281.5 402.5,282.5C 400.915,284.831 399.749,287.497 399,290.5C 394.79,314.366 388.29,337.366 379.5,359.5C 376.482,359.335 373.482,359.502 370.5,360C 364.152,363.38 357.485,364.213 350.5,362.5C 349.218,361.042 349.218,359.708 350.5,358.5C 350.881,359.931 351.881,360.764 353.5,361C 356.167,361.667 358.833,361.667 361.5,361C 366.559,358.568 371.892,357.068 377.5,356.5C 378.127,355.583 378.461,354.583 378.5,353.5C 389.31,329.037 395.977,303.37 398.5,276.5 Z"/></g>
<g><path style="opacity:1" fill="#4d392a" d="M 155.5,354.5 C 149.081,355.8 142.748,357.466 136.5,359.5C 129.167,360.833 121.833,360.833 114.5,359.5C 113.051,358.828 111.718,358.161 110.5,357.5C 125.976,357.841 140.976,355.341 155.5,350C 156.662,349.173 157.829,348.34 159,347.5C 160.257,347.85 160.591,348.517 160,349.5C 158.261,351.043 156.761,352.71 155.5,354.5 Z"/></g>
<g><path style="opacity:1" fill="#4f382a" d="M 237.5,350.5 C 236.448,350.351 235.448,350.517 234.5,351C 235.748,352.4 236.748,353.9 237.5,355.5C 233.291,354.172 231.291,351.505 231.5,347.5C 233.427,348.862 235.427,349.862 237.5,350.5 Z"/></g>
<g><path style="opacity:1" fill="#4d3627" d="M 247.5,354.5 C 250.219,354.397 252.885,354.731 255.5,355.5C 256.713,355.747 257.38,356.414 257.5,357.5C 253.909,357.055 250.576,356.055 247.5,354.5 Z"/></g>
<g><path style="opacity:1" fill="#563e2e" d="M 237.5,355.5 C 239.89,357.237 241.557,359.571 242.5,362.5C 239.227,361.404 237.561,359.071 237.5,355.5 Z"/></g>
<g><path style="opacity:1" fill="#a00503" d="M 378.5,353.5 C 378.461,354.583 378.127,355.583 377.5,356.5C 371.892,357.068 366.559,358.568 361.5,361C 358.833,361.667 356.167,361.667 353.5,361C 351.881,360.764 350.881,359.931 350.5,358.5C 350.263,357.209 350.596,356.209 351.5,355.5C 351.5,356.5 351.5,357.5 351.5,358.5C 355.514,358.666 359.514,358.499 363.5,358C 368.147,355.295 373.147,353.795 378.5,353.5 Z"/></g>
<g><path style="opacity:1" fill="#5b4835" d="M 377.5,294.5 C 378.097,294.735 378.43,295.235 378.5,296C 377.35,299.627 376.017,303.127 374.5,306.5C 371.612,306.22 370.112,307.553 370,310.5C 366.437,313.275 363.104,316.275 360,319.5C 359.517,320.448 359.351,321.448 359.5,322.5C 356.256,324.585 352.589,325.919 348.5,326.5C 347.841,358.851 348.507,390.851 350.5,422.5C 350.179,424.048 349.179,424.715 347.5,424.5C 347.5,391.5 347.5,358.5 347.5,325.5C 349.406,324.518 351.406,323.518 353.5,322.5C 353.863,321.817 354.196,321.15 354.5,320.5C 355.552,320.649 356.552,320.483 357.5,320C 359.683,317.65 361.683,315.15 363.5,312.5C 366.675,310.424 369.342,307.758 371.5,304.5C 373.165,300.865 375.165,297.531 377.5,294.5 Z"/></g>
<g><path style="opacity:1" fill="#49392a" d="M 284.5,398.5 C 286.311,398.572 287.644,399.405 288.5,401C 286.616,404.363 284.116,407.196 281,409.5C 278.364,410.318 276.031,411.651 274,413.5C 263.131,416.774 252.798,421.107 243,426.5C 242.184,425.177 241.017,424.511 239.5,424.5C 241.672,422.055 244.338,420.055 247.5,418.5C 256.005,415.958 264.338,412.958 272.5,409.5C 277.498,406.831 281.498,403.165 284.5,398.5 Z"/></g>
<g><path style="opacity:1" fill="#705942" d="M 71.5,297.5 C 71.5,344.833 71.5,392.167 71.5,439.5C 156.167,439.5 240.833,439.5 325.5,439.5C 326.167,439.5 326.833,439.5 327.5,439.5C 242.002,440.499 156.335,440.833 70.5,440.5C 70.1679,392.664 70.5012,344.997 71.5,297.5 Z"/></g>
<g><path style="opacity:0.805" fill="#be5016" d="M 55.5,460.5 C 98.8333,460.5 142.167,460.5 185.5,460.5C 145.847,462.494 105.847,463.161 65.5,462.5C 61.6707,463.069 58.3373,462.402 55.5,460.5 Z"/></g>
<g><path style="opacity:0.167" fill="#a52bd3" d="M 185.5,460.5 C 210.5,460.5 235.5,460.5 260.5,460.5C 258.722,462.269 257.055,464.269 255.5,466.5C 251.461,468.036 248.128,470.536 245.5,474C 244.552,474.483 243.552,474.649 242.5,474.5C 242.5,475.5 242.5,476.5 242.5,477.5C 239.833,478.833 237.167,480.167 234.5,481.5C 234.719,482.675 234.386,483.675 233.5,484.5C 225.122,490.317 215.789,493.984 205.5,495.5C 183.191,497.984 160.858,498.151 138.5,496C 132.296,494.033 125.962,492.533 119.5,491.5C 112.741,489.316 106.075,486.983 99.5,484.5C 87.1672,478.67 75.8338,471.336 65.5,462.5C 105.847,463.161 145.847,462.494 185.5,460.5 Z"/></g>
</svg>
